<svg width="24" height="23" viewBox="0 0 24 23" fill="none" xmlns="http://www.w3.org/2000/svg">
<path d="M13.7777 6.45643H9.99993C9.09327 6.45643 7.40271 6.45643 7.40271 3.82599C7.40271 1.19556 9.09327 1.19556 9.99993 1.19556H13.7777C14.6844 1.19556 16.3749 1.19556 16.3749 3.82599C16.3749 4.74425 16.3749 6.45643 13.7777 6.45643ZM9.99993 2.63034C9.06493 2.63034 8.81938 2.63034 8.81938 3.82599C8.81938 5.02164 9.06493 5.02164 9.99993 5.02164H13.7777C14.9583 5.02164 14.9583 4.77295 14.9583 3.82599C14.9583 2.63034 14.7127 2.63034 13.7777 2.63034H9.99993Z" fill="#292D32"/>
<path d="M13.7778 21.7608H9.05554C3.74776 21.7608 2.68054 19.293 2.68054 15.3043V9.56518C2.68054 5.20344 4.23888 3.33822 8.07332 3.13735C8.4511 3.11822 8.80054 3.41474 8.81943 3.81648C8.83832 4.21822 8.5361 4.54344 8.14888 4.56257C5.46665 4.71561 4.09721 5.52865 4.09721 9.56518V15.3043C4.09721 18.8434 4.78665 20.326 9.05554 20.326H13.7778C14.165 20.326 14.4861 20.6513 14.4861 21.0434C14.4861 21.4356 14.165 21.7608 13.7778 21.7608Z" fill="#02152A"/>
<path d="M20.3889 15.0652C20.0017 15.0652 19.6806 14.74 19.6806 14.3478V9.56519C19.6806 5.52867 18.3111 4.71563 15.6289 4.56259C15.2417 4.54346 14.9395 4.19911 14.9584 3.80693C14.9772 3.41476 15.3267 3.10867 15.7045 3.1278C19.5389 3.33824 21.0972 5.20346 21.0972 9.55563V14.3382C21.0972 14.74 20.7761 15.0652 20.3889 15.0652Z" fill="#02152A"/>
<path d="M20.3888 21.7609H17.5555C17.1683 21.7609 16.8472 21.4357 16.8472 21.0435C16.8472 20.6513 17.1683 20.3261 17.5555 20.3261H19.6805V18.1739C19.6805 17.7818 20.0016 17.4565 20.3888 17.4565C20.7761 17.4565 21.0972 17.7818 21.0972 18.1739V21.0435C21.0972 21.4357 20.7761 21.7609 20.3888 21.7609Z" fill="#02152A"/>
<path d="M20.3511 21.7226C20.1717 21.7226 19.9922 21.6557 19.8505 21.5122L14.2217 15.8113C13.9478 15.5339 13.9478 15.0748 14.2217 14.7974C14.4955 14.52 14.9489 14.52 15.2228 14.7974L20.8517 20.4983C21.1255 20.7757 21.1255 21.2348 20.8517 21.5122C20.71 21.6461 20.5305 21.7226 20.3511 21.7226Z" fill="#292D32"/>
</svg>
