<svg width="44" height="44" viewBox="0 0 44 44" fill="none" xmlns="http://www.w3.org/2000/svg">
<rect width="44" height="44" fill="#F5F5F5"/>
<g clip-path="url(#clip0_3293_41226)">
<rect width="1920" height="1080" transform="translate(-939 -408)" fill="#F9F9F9"/>
<g opacity="0.3" filter="url(#filter0_b_3293_41226)">
<rect x="-939" y="-408" width="1920" height="1080" fill="black"/>
</g>
<rect x="-132" y="-5" width="307" height="185" rx="4" fill="white"/>
<path d="M22 43.5C10.14 43.5 0.5 33.86 0.5 22C0.5 10.14 10.14 0.5 22 0.5C33.86 0.5 43.5 10.14 43.5 22C43.5 33.86 33.86 43.5 22 43.5ZM22 3.5C11.8 3.5 3.5 11.8 3.5 22C3.5 32.2 11.8 40.5 22 40.5C32.2 40.5 40.5 32.2 40.5 22C40.5 11.8 32.2 3.5 22 3.5Z" fill="#292D32"/>
<path d="M22 25.5C21.18 25.5 20.5 24.82 20.5 24V14C20.5 13.18 21.18 12.5 22 12.5C22.82 12.5 23.5 13.18 23.5 14V24C23.5 24.82 22.82 25.5 22 25.5Z" fill="#292D32"/>
<path d="M22 32C21.74 32 21.48 31.94 21.24 31.84C21 31.74 20.78 31.6 20.58 31.42C20.4 31.22 20.26 31.02 20.16 30.76C20.06 30.52 20 30.26 20 30C20 29.74 20.06 29.48 20.16 29.24C20.26 29 20.4 28.78 20.58 28.58C20.78 28.4 21 28.26 21.24 28.16C21.72 27.96 22.28 27.96 22.76 28.16C23 28.26 23.22 28.4 23.42 28.58C23.6 28.78 23.74 29 23.84 29.24C23.94 29.48 24 29.74 24 30C24 30.26 23.94 30.52 23.84 30.76C23.74 31.02 23.6 31.22 23.42 31.42C23.22 31.6 23 31.74 22.76 31.84C22.52 31.94 22.26 32 22 32Z" fill="#292D32"/>
</g>
<defs>
<filter id="filter0_b_3293_41226" x="-943" y="-412" width="1928" height="1088" filterUnits="userSpaceOnUse" color-interpolation-filters="sRGB">
<feFlood flood-opacity="0" result="BackgroundImageFix"/>
<feGaussianBlur in="BackgroundImageFix" stdDeviation="2"/>
<feComposite in2="SourceAlpha" operator="in" result="effect1_backgroundBlur_3293_41226"/>
<feBlend mode="normal" in="SourceGraphic" in2="effect1_backgroundBlur_3293_41226" result="shape"/>
</filter>
<clipPath id="clip0_3293_41226">
<rect width="1920" height="1080" fill="white" transform="translate(-939 -408)"/>
</clipPath>
</defs>
</svg>
