<svg width="24" height="29" viewBox="0 0 24 29" fill="none" xmlns="http://www.w3.org/2000/svg">
<path d="M12 14C11.3539 14 10.7078 13.7174 10.2186 13.1625L4.20075 6.33731C3.93308 6.03373 3.93308 5.53126 4.20075 5.22768C4.46842 4.92411 4.91145 4.92411 5.17912 5.22768L11.197 12.0529C11.64 12.5554 12.36 12.5554 12.803 12.0529L18.8209 5.22768C19.0885 4.92411 19.5316 4.92411 19.7992 5.22768C20.0669 5.53126 20.0669 6.03373 19.7992 6.33731L13.7814 13.1625C13.2922 13.7174 12.6461 14 12 14Z" fill="#0D6EFD"/>
<path d="M12 25C11.3539 25 10.7078 24.7174 10.2186 24.1625L4.20075 17.3373C3.93308 17.0337 3.93308 16.5313 4.20075 16.2277C4.46842 15.9241 4.91145 15.9241 5.17912 16.2277L11.197 23.0529C11.64 23.5554 12.36 23.5554 12.803 23.0529L18.8209 16.2277C19.0885 15.9241 19.5316 15.9241 19.7992 16.2277C20.0669 16.5313 20.0669 17.0337 19.7992 17.3373L13.7814 24.1625C13.2922 24.7174 12.6461 25 12 25Z" fill="#0D6EFD"/>
</svg>
