<svg width="612" height="401" viewBox="0 0 612 401" fill="none" xmlns="http://www.w3.org/2000/svg">
<g clip-path="url(#clip0_2306_41746)">
<path d="M601.33 94.54L591.76 140.88L585.6 134.88L575.12 142.35L567.11 132.41L549.15 145.47L533.8 119.8L516.68 129.83L509.89 120.46L488.15 132.71L481.61 118.71L496.85 44.9L578.55 61.77L601.33 94.54Z" fill="#EBEBEB"/>
<path d="M578.55 61.77L601.33 94.54L572.99 88.69L578.55 61.77Z" fill="#DBDBDB"/>
<path d="M589.72 150.15L575.69 218.14L465.64 195.43L479.57 127.97L486.11 141.98L507.86 129.73L514.64 139.09L531.77 129.06L547.11 154.73L565.08 141.67L573.08 151.61L583.57 144.14L589.72 150.15Z" fill="#EBEBEB"/>
<path d="M432.21 142.18L320.06 149.12L311.15 5.15L394.43 0L425 25.64L432.21 142.18Z" fill="#EBEBEB"/>
<path d="M394.43 0L425 25.64L396.12 27.43L394.43 0Z" fill="#DBDBDB"/>
<path d="M363.34 96.86L362.9 93.62C361.77 86.89 363.61 79.36 369.46 71.48C374.73 64.48 377.6 59.48 377.28 53.81C376.92 47.41 372.67 43.37 364.76 43.69C360.239 43.9248 355.897 45.5291 352.31 48.29L348.86 40.55C352.86 37.31 359.86 34.9 366.51 34.55C380.94 33.74 387.96 42.28 388.51 51.81C388.99 60.34 384.57 66.76 378.95 74.24C373.79 81.07 372.1 86.71 372.83 93.08L373.14 96.34L363.34 96.86ZM361.56 114.58C361.3 109.94 364.25 106.5 368.64 106.25C373.03 106 376.23 109.1 376.49 113.74C376.73 118.13 374.04 121.68 369.4 121.94C365 122.19 361.81 119 361.56 114.58Z" fill="#DBDBDB"/>
<path d="M82.8599 72.38L71.5699 67.26L69.9999 70.72C69.7667 71.2112 69.4044 71.6297 68.9517 71.9309C68.499 72.2321 67.973 72.4046 67.4299 72.43C66.8099 72.43 66.1999 72.52 65.5799 72.61C65.0421 72.6978 64.4905 72.6339 63.987 72.4254C63.4836 72.217 63.0482 71.8723 62.7299 71.43L60.5199 68.35L50.4599 75.57L52.6699 78.65C52.9792 79.0971 53.1611 79.6198 53.1964 80.1623C53.2316 80.7048 53.1187 81.2467 52.8699 81.73C52.5829 82.279 52.3259 82.8432 52.0999 83.42C51.9061 83.9298 51.5743 84.3756 51.1416 84.7076C50.7089 85.0396 50.1924 85.2447 49.6499 85.3L45.8799 85.67L47.0899 98L50.8799 97.62C51.4234 97.5766 51.9685 97.6821 52.4566 97.9253C52.9446 98.1684 53.3572 98.54 53.6499 99C53.8099 99.26 53.9799 99.51 54.1599 99.76C54.3399 100.01 54.5199 100.25 54.7099 100.48C55.055 100.9 55.2769 101.407 55.351 101.946C55.4252 102.484 55.3486 103.032 55.1299 103.53L53.5499 107L64.8399 112.12L66.4099 108.66C66.6443 108.17 67.011 107.755 67.4685 107.461C67.9261 107.168 68.4565 107.008 68.9999 107C69.6132 107 70.2232 106.94 70.8299 106.82C71.3657 106.742 71.9126 106.811 72.4126 107.018C72.9126 107.226 73.347 107.565 73.6699 108L75.8799 111.08L85.9999 103.83L83.7899 100.75C83.4733 100.306 83.2868 99.7826 83.2514 99.2385C83.2161 98.6944 83.3333 98.1512 83.5899 97.67C83.8564 97.1265 84.0934 96.569 84.2999 96C84.498 95.4921 84.8307 95.0478 85.2624 94.7148C85.6941 94.3818 86.2083 94.1727 86.7499 94.11L90.5399 93.74L89.3199 81.4L85.5299 81.77C84.9886 81.8176 84.4448 81.7137 83.9592 81.47C83.4735 81.2263 83.0652 80.8524 82.7799 80.39C82.6099 80.14 82.4399 79.88 82.2599 79.63C82.0799 79.38 81.8999 79.14 81.7099 78.9C81.369 78.476 81.1498 77.9672 81.0758 77.4282C81.0018 76.8892 81.0758 76.3402 81.2899 75.84L82.8599 72.38ZM76.4599 83.79C77.6279 85.4227 78.2855 87.3652 78.3496 89.3717C78.4137 91.3782 77.8813 93.3586 76.8198 95.0625C75.7583 96.7664 74.2154 98.1173 72.3861 98.9443C70.5569 99.7713 68.5234 100.037 66.543 99.7086C64.5626 99.38 62.7241 98.4714 61.2601 97.0978C59.796 95.7243 58.7721 93.9474 58.318 91.9919C57.8638 90.0365 57.9997 87.9902 58.7084 86.112C59.4172 84.2338 60.6671 82.6079 62.2999 81.44C64.4893 79.874 67.2111 79.2418 69.8666 79.6825C72.522 80.1233 74.8937 81.6007 76.4599 83.79Z" fill="#EBEBEB"/>
<path d="M592.76 236L585.24 240.34L586.57 242.64C586.766 242.969 586.864 243.347 586.852 243.73C586.839 244.113 586.717 244.484 586.5 244.8C586.264 245.165 586.047 245.542 585.85 245.93C585.68 246.271 585.419 246.557 585.096 246.759C584.773 246.96 584.4 247.068 584.02 247.07H581.36V255.75H584C584.383 255.746 584.759 255.853 585.084 256.057C585.408 256.26 585.667 256.553 585.83 256.9C586.027 257.284 586.244 257.658 586.48 258.02C586.697 258.336 586.819 258.707 586.832 259.09C586.844 259.473 586.746 259.851 586.55 260.18L585.22 262.49L592.74 266.82L594.08 264.51C594.274 264.182 594.555 263.915 594.893 263.739C595.23 263.562 595.61 263.483 595.99 263.51H596.63H597.27C597.65 263.483 598.03 263.562 598.367 263.739C598.704 263.915 598.986 264.182 599.18 264.51L600.51 266.82L608.03 262.49L606.7 260.18C606.511 259.846 606.418 259.467 606.432 259.084C606.447 258.701 606.567 258.329 606.78 258.01C607.01 257.65 607.23 257.28 607.43 256.89C607.6 256.549 607.861 256.263 608.184 256.061C608.507 255.86 608.879 255.752 609.26 255.75H611.92V247.07H609.26C608.879 247.068 608.507 246.96 608.184 246.759C607.861 246.557 607.6 246.271 607.43 245.93C607.23 245.54 607.01 245.17 606.78 244.81C606.567 244.493 606.446 244.123 606.432 243.741C606.418 243.36 606.511 242.982 606.7 242.65L608.03 240.34L600.53 236L599.2 238.31C599.002 238.635 598.72 238.899 598.384 239.075C598.047 239.251 597.669 239.333 597.29 239.31C597.08 239.31 596.87 239.31 596.65 239.31C596.43 239.31 596.22 239.31 596.01 239.31C595.629 239.334 595.249 239.254 594.91 239.078C594.572 238.902 594.288 238.636 594.09 238.31L592.76 236ZM596.65 244.3C598.056 244.302 599.429 244.721 600.597 245.503C601.765 246.286 602.675 247.397 603.212 248.696C603.748 249.995 603.888 251.425 603.612 252.803C603.337 254.182 602.659 255.448 601.664 256.441C600.669 257.434 599.402 258.111 598.023 258.384C596.644 258.658 595.215 258.516 593.917 257.978C592.618 257.439 591.508 256.528 590.727 255.359C589.947 254.19 589.53 252.816 589.53 251.41C589.527 250.474 589.71 249.546 590.066 248.681C590.423 247.815 590.947 247.028 591.609 246.366C592.27 245.704 593.056 245.178 593.921 244.82C594.786 244.462 595.714 244.279 596.65 244.28V244.3Z" fill="#EBEBEB"/>
<path d="M105.68 35.43L98.7898 40.7L100.4 42.81C100.632 43.1148 100.775 43.4785 100.812 43.8601C100.849 44.2417 100.779 44.6261 100.61 44.97C100.418 45.3593 100.251 45.76 100.11 46.17C99.9845 46.53 99.7623 46.8484 99.4677 47.0901C99.173 47.3318 98.8173 47.4875 98.4398 47.54L95.7998 47.88L96.9198 56.49L99.5598 56.15C99.9436 56.0879 100.337 56.139 100.692 56.2971C101.048 56.4551 101.349 56.7133 101.56 57.04C101.805 57.3875 102.068 57.7213 102.35 58.04C102.602 58.3284 102.769 58.6812 102.833 59.059C102.896 59.4369 102.854 59.8249 102.71 60.18L101.71 62.63L109.71 65.97L110.71 63.5C110.861 63.1484 111.106 62.8455 111.418 62.6249C111.731 62.4042 112.098 62.2745 112.48 62.25L113.12 62.19L113.75 62.09C114.12 62.0203 114.502 62.0533 114.855 62.1855C115.207 62.3178 115.517 62.5441 115.75 62.84L117.37 65L124.26 59.73L122.65 57.61C122.413 57.3093 122.267 56.9469 122.23 56.5658C122.192 56.1847 122.265 55.8009 122.44 55.46C122.631 55.0707 122.798 54.67 122.94 54.26C123.066 53.9013 123.288 53.5844 123.583 53.3444C123.878 53.1043 124.233 52.9505 124.61 52.9L127.25 52.55L126.13 43.94L123.49 44.28C123.106 44.3421 122.712 44.291 122.357 44.1329C122.002 43.9748 121.701 43.7167 121.49 43.39C121.245 43.0423 120.981 42.7085 120.7 42.39C120.448 42.1015 120.28 41.7488 120.217 41.3709C120.153 40.9931 120.196 40.6051 120.34 40.25L121.34 37.79L113.34 34.46L112.34 36.92C112.189 37.2703 111.943 37.5718 111.63 37.7907C111.318 38.0097 110.951 38.1375 110.57 38.16L109.93 38.23L109.3 38.33C108.929 38.3998 108.546 38.3657 108.193 38.2316C107.84 38.0975 107.531 37.8685 107.3 37.57L105.68 35.43ZM110.61 43.16C112.003 42.9809 113.418 43.2184 114.676 43.8425C115.934 44.4666 116.979 45.4493 117.679 46.6667C118.38 47.8841 118.704 49.2816 118.611 50.683C118.518 52.0843 118.012 53.4267 117.157 54.5409C116.301 55.655 115.136 56.4909 113.806 56.9432C112.476 57.3955 111.043 57.4438 109.685 57.0822C108.328 56.7206 107.109 55.9651 106.181 54.9111C105.252 53.8572 104.657 52.5519 104.47 51.16C104.343 50.2309 104.402 49.2861 104.643 48.3799C104.884 47.4738 105.302 46.6243 105.873 45.8805C106.444 45.1367 107.156 44.5134 107.969 44.0464C108.782 43.5795 109.68 43.2782 110.61 43.16Z" fill="#EBEBEB"/>
<path d="M54.1999 261.05C54.5753 251.383 54.4417 241.703 53.7999 232.05C52.3691 212.121 49.3292 192.339 44.7099 172.9C42.1699 161.9 39.0499 151.19 35.7899 140.44C35.6899 140.12 35.1699 140.21 35.2599 140.55C45.3299 178.4 53.5899 217.51 52.9999 256.9C52.8399 267.9 51.5599 278.76 50.5199 289.71C50.5199 290.01 50.9699 290.12 51.0399 289.82C53.1299 280.45 53.8099 270.62 54.1999 261.05Z" fill="#EBEBEB"/>
<path d="M35.26 140.51C35.26 140.51 20 179.21 23.43 188.3C26.86 197.39 33.88 199.3 33.88 199.3C33.88 199.3 24.55 212.62 31.07 225.11C37.59 237.6 52.07 237.01 53.07 251.17C53 251.21 53.84 192 35.26 140.51Z" fill="#EBEBEB"/>
<path d="M51.3799 226.76C51.4044 226.692 51.4044 226.618 51.3799 226.55C49.3797 200.132 44.422 174.022 36.5999 148.71C36.5999 148.63 36.4499 148.66 36.4699 148.71C39.4899 160.043 42.1566 171.427 44.4699 182.86C42.4211 180.919 39.918 179.523 37.1899 178.8C37.1899 178.8 37.1099 178.86 37.1899 178.88C40.0559 179.93 42.6327 181.644 44.7099 183.88C45.1499 186.12 45.5899 188.37 45.9999 190.61C42.5899 186.8 37.8699 184.92 33.1399 183.12C33.0699 183.12 33.0399 183.2 33.1399 183.22C38.0699 185.22 42.9699 187.81 46.3099 192.05C47.4699 198.483 48.4899 204.93 49.3699 211.39C46.9132 208.804 43.7534 206.993 40.2799 206.18C40.1699 206.18 40.1099 206.31 40.2199 206.34C43.8002 207.371 47.0034 209.421 49.4399 212.24L49.4999 212.29C49.7999 214.557 50.0866 216.833 50.3599 219.12C48.453 217.509 46.3031 216.209 43.9899 215.27C43.9767 215.27 43.9639 215.275 43.9546 215.285C43.9452 215.294 43.9399 215.307 43.9399 215.32C43.9399 215.333 43.9452 215.346 43.9546 215.355C43.9639 215.365 43.9767 215.37 43.9899 215.37C46.3517 216.39 48.5149 217.818 50.3799 219.59C50.3799 219.59 50.4299 219.59 50.4599 219.59C50.7099 221.75 50.9599 223.92 51.1799 226.09C47.7483 221.939 43.2909 218.757 38.2499 216.86C38.1499 216.86 38.0999 216.97 38.1999 217.02C43.1757 219.21 47.547 222.572 50.9399 226.82C50.9742 226.87 51.0244 226.908 51.0825 226.926C51.1406 226.944 51.2031 226.942 51.2599 226.92C51.5899 230.25 51.8899 233.59 52.1299 236.92C52.1299 236.97 52.2099 236.97 52.2099 236.92C51.8999 233.59 51.6599 230.18 51.3799 226.76Z" fill="white"/>
<path d="M39.1299 175C36.381 173.279 33.2387 172.288 29.9999 172.12C29.9199 172.12 29.9199 172.22 29.9999 172.24C33.1164 172.824 36.1424 173.816 38.9999 175.19C39.1499 175.25 39.2399 175.05 39.1299 175Z" fill="white"/>
<path d="M41 216C38.8772 214.784 36.5423 213.983 34.12 213.64C34.04 213.64 34.03 213.76 34.12 213.77C36.4876 214.244 38.7767 215.048 40.92 216.16C41 216.16 41.07 216 41 216Z" fill="white"/>
<path d="M94.28 188.93C87.8326 193.39 81.9115 198.566 76.63 204.36C71.183 210.491 66.9815 217.624 64.26 225.36C58.4553 241.469 55.3273 258.42 55 275.54C54.8048 285.023 55.7143 294.497 57.71 303.77C57.7262 303.837 57.7676 303.896 57.8258 303.934C57.884 303.971 57.9545 303.985 58.0226 303.972C58.0907 303.959 58.1513 303.921 58.1918 303.865C58.2322 303.808 58.2495 303.739 58.24 303.67C55.7578 287.31 55.8523 270.661 58.52 254.33C61.14 238.33 65.25 220.9 75.43 207.89C80.97 200.81 87.88 195.23 94.71 189.47C95.11 189.17 94.65 188.67 94.28 188.93Z" fill="#EBEBEB"/>
<path d="M57.2798 264C60.951 258.062 65.2635 252.546 70.1398 247.55C77.7698 239.93 84.1398 234.55 85.1398 229.47C86.1398 224.39 77.4998 220.71 77.4998 220.71C77.4998 220.71 88.0998 222.62 90.9998 218.19C93.8998 213.76 95.2798 188.11 95.2798 188.11C95.2798 188.11 76.0698 201.82 67.1198 221C58.1698 240.18 57.2798 264 57.2798 264Z" fill="#EBEBEB"/>
<path d="M88.4102 212.17C87.1451 211.992 85.8646 211.948 84.5902 212.04C84.5606 212.048 84.5346 212.066 84.516 212.09C84.4974 212.115 84.4873 212.144 84.4873 212.175C84.4873 212.206 84.4974 212.235 84.516 212.26C84.5346 212.284 84.5606 212.302 84.5902 212.31C85.8502 212.31 87.1202 212.26 88.3802 212.31C88.3909 212.319 88.4035 212.324 88.417 212.326C88.4304 212.329 88.4442 212.327 88.457 212.323C88.4699 212.318 88.4813 212.31 88.4903 212.3C88.4993 212.29 88.5055 212.278 88.5084 212.264C88.5112 212.251 88.5106 212.237 88.5066 212.224C88.5026 212.211 88.4954 212.199 88.4855 212.19C88.4757 212.18 88.4636 212.174 88.4505 212.17C88.4373 212.167 88.4234 212.167 88.4102 212.17Z" fill="white"/>
<path d="M74.5899 237.06C72.5624 237.109 70.5591 237.512 68.6699 238.25C68.6699 238.25 68.6699 238.35 68.6699 238.33C70.6699 237.87 72.5999 237.68 74.5799 237.33C74.6058 237.319 74.6279 237.3 74.6438 237.277C74.6597 237.254 74.6686 237.226 74.6697 237.198C74.6707 237.17 74.6638 237.142 74.6497 237.118C74.6356 237.093 74.6149 237.073 74.5899 237.06Z" fill="white"/>
<path d="M70.4499 228.46C69.6078 228.456 68.7672 228.533 67.9399 228.69C67.9245 228.696 67.9113 228.706 67.902 228.719C67.8927 228.733 67.8877 228.749 67.8877 228.765C67.8877 228.781 67.8927 228.797 67.902 228.811C67.9113 228.824 67.9245 228.834 67.9399 228.84C68.7784 228.89 69.6199 228.85 70.4499 228.72C70.4843 228.72 70.5174 228.706 70.5418 228.682C70.5662 228.658 70.5799 228.624 70.5799 228.59C70.5799 228.556 70.5662 228.522 70.5418 228.498C70.5174 228.474 70.4843 228.46 70.4499 228.46Z" fill="white"/>
<path d="M0.999855 216.16C7.24704 218.279 13.235 221.097 18.8499 224.56C24.6714 228.267 29.7208 233.065 33.7199 238.69C42.1307 250.394 48.5691 263.396 52.7799 277.18C55.1293 284.808 56.5791 292.685 57.0999 300.65C57.0962 300.704 57.0738 300.755 57.0365 300.794C56.9992 300.833 56.9494 300.857 56.8958 300.863C56.8421 300.869 56.7881 300.856 56.7432 300.826C56.6982 300.796 56.6652 300.752 56.6499 300.7C54.8786 286.882 50.9473 273.428 44.9999 260.83C39.1699 248.48 31.8199 235.33 20.5799 227.15C14.4599 222.7 7.57986 219.79 0.719855 216.71C0.646921 216.673 0.591723 216.608 0.566406 216.53C0.541089 216.453 0.547725 216.368 0.584855 216.295C0.621986 216.222 0.686568 216.167 0.764396 216.142C0.842223 216.116 0.926921 216.123 0.999855 216.16Z" fill="#EBEBEB"/>
<path d="M48.29 268.37C43.9504 264.4 39.1848 260.922 34.08 258C26.14 253.59 19.69 250.69 17.72 246.84C15.75 242.99 21.88 238 21.88 238C21.88 238 13.78 242 10.42 239.06C7.06 236.12 0 215.72 0 215.72C0 215.72 18.71 222.38 30.39 235.86C42.07 249.34 48.29 268.37 48.29 268.37Z" fill="#EBEBEB"/>
<path d="M16.4398 228.18C15.6002 228.12 14.7563 228.17 13.9298 228.33C13.8398 228.33 13.8698 228.49 13.9298 228.48C14.7598 228.39 15.5698 228.42 16.3898 228.4C16.419 228.407 16.4496 228.401 16.475 228.385C16.5003 228.37 16.5182 228.344 16.5248 228.315C16.5315 228.286 16.5262 228.255 16.5103 228.23C16.4944 228.205 16.469 228.187 16.4398 228.18Z" fill="white"/>
<path d="M72.4199 326.45H30.1899L36.2099 282.34L37.7499 271.03H64.8599L66.3999 282.34L72.4199 326.45Z" fill="#DBDBDB"/>
<path d="M66.4 282.34H36.21L37.75 271.03H64.86L66.4 282.34Z" fill="#C7C7C7"/>
<path d="M68.7301 267.11H33.8701V276.69H68.7301V267.11Z" fill="#DBDBDB"/>
<path d="M3.33984 326.45L79.3498 326.2L155.36 326.12L307.38 325.95L459.4 326.11L535.41 326.2L611.42 326.45L535.41 326.69L459.4 326.78L307.38 326.94L155.36 326.78L79.3498 326.69L3.33984 326.45Z" fill="#263238"/>
<path d="M309.38 400.98C467.742 400.98 596.12 386.913 596.12 369.56C596.12 352.207 467.742 338.14 309.38 338.14C151.018 338.14 22.6401 352.207 22.6401 369.56C22.6401 386.913 151.018 400.98 309.38 400.98Z" fill="#EBEBEB"/>
<path d="M242.63 364.35C240.3 365.14 173.49 365.35 170.93 363.78C169.93 363.17 169.36 353.45 168.93 341.67C168.84 339.13 168.77 336.5 168.71 333.83L163.29 298.2L207.96 297.91L212.17 333.55L212 341.39C212 341.39 237.62 352.75 240.24 354.8C242.86 356.85 245 363.56 242.63 364.35Z" fill="#EB9481"/>
<path d="M242.63 364.35C240.3 365.14 173.49 365.35 170.93 363.78C169.75 363.04 169.11 348.83 168.75 333.83L212.21 333.55L212.04 341.39C212.04 341.39 237.66 352.75 240.28 354.8C242.9 356.85 245 363.56 242.63 364.35Z" fill="white"/>
<path d="M242.63 364.35C240.3 365.14 173.49 365.35 170.93 363.78C169.93 363.17 169.36 353.45 168.93 341.67L212 341.39C212 341.39 237.62 352.75 240.24 354.8C242.86 356.85 245 363.56 242.63 364.35Z" fill="#A6A6A6"/>
<path d="M241.66 361.68C230.46 361.45 185.26 361.56 174.17 362.17C174.08 362.17 174.08 362.24 174.17 362.24C185.27 362.72 230.47 362.24 241.66 361.87C241.9 361.86 241.9 361.69 241.66 361.68Z" fill="#263238"/>
<path d="M236 352.41C234.755 352.382 233.517 352.613 232.365 353.088C231.214 353.563 230.173 354.272 229.31 355.17C227.74 356.775 226.852 358.925 226.83 361.17C226.83 361.24 226.95 361.24 226.96 361.17C227.332 358.956 228.408 356.922 230.03 355.371C231.652 353.819 233.732 352.833 235.96 352.56C235.98 352.565 236.001 352.563 236.019 352.552C236.037 352.542 236.05 352.525 236.055 352.505C236.06 352.485 236.058 352.464 236.047 352.446C236.037 352.428 236.02 352.415 236 352.41Z" fill="#263238"/>
<path d="M216.39 342.49C211.91 342.49 206.72 344.05 203.94 347.72C203.84 347.86 204.04 348.02 204.17 347.95C208.082 345.877 212.206 344.23 216.47 343.04C216.536 343.022 216.593 342.98 216.63 342.923C216.668 342.866 216.683 342.797 216.673 342.73C216.663 342.662 216.629 342.6 216.577 342.556C216.525 342.512 216.458 342.489 216.39 342.49Z" fill="#263238"/>
<path d="M219.86 343.83C215.37 343.78 210.18 345.38 207.41 349.06C207.3 349.2 207.5 349.35 207.64 349.28C211.551 347.214 215.671 345.571 219.93 344.38C219.995 344.362 220.052 344.321 220.089 344.265C220.126 344.209 220.142 344.142 220.134 344.075C220.125 344.008 220.093 343.946 220.043 343.901C219.992 343.856 219.928 343.831 219.86 343.83Z" fill="#263238"/>
<path d="M223.32 345.17C218.84 345.12 213.65 346.72 210.87 350.4C210.77 350.54 210.97 350.69 211.1 350.62C215.014 348.554 219.138 346.911 223.4 345.72C223.466 345.702 223.523 345.66 223.561 345.603C223.598 345.546 223.613 345.477 223.603 345.41C223.594 345.342 223.559 345.28 223.507 345.236C223.455 345.192 223.389 345.169 223.32 345.17Z" fill="#263238"/>
<path d="M226.79 346.5C222.3 346.5 217.11 348.06 214.34 351.73C214.23 351.88 214.44 352.03 214.57 351.96C218.481 349.885 222.605 348.239 226.87 347.05C226.936 347.032 226.993 346.99 227.031 346.933C227.068 346.876 227.083 346.807 227.074 346.74C227.064 346.672 227.029 346.61 226.977 346.566C226.925 346.522 226.859 346.499 226.79 346.5Z" fill="#263238"/>
<path d="M177 351.53C172 351.53 172 359.37 177 359.34C182 359.31 182 351.49 177 351.53Z" fill="#263238"/>
<path d="M221.19 330.51C218.92 328.64 216.06 330.51 214.67 332.45C212.358 335.858 210.979 339.813 210.67 343.92C210.668 343.938 210.671 343.957 210.677 343.974C210.684 343.992 210.694 344.007 210.708 344.02C210.721 344.032 210.738 344.042 210.755 344.047C210.773 344.052 210.792 344.053 210.81 344.05C210.828 344.134 210.867 344.213 210.921 344.28C210.976 344.347 211.045 344.4 211.124 344.435C211.203 344.47 211.289 344.486 211.375 344.482C211.461 344.477 211.545 344.453 211.62 344.41C214.8 342.19 218.48 340.21 220.89 337.08C222.26 335.26 223.34 332.29 221.19 330.51ZM215.73 340.06C214.19 341.19 212.6 342.24 211.1 343.42C211.9 341.19 212.59 338.93 213.61 336.77C214.082 335.735 214.623 334.732 215.23 333.77C216.23 332.29 220.59 328.52 221.05 333.4C221.31 336.06 217.56 338.71 215.73 340.06Z" fill="#263238"/>
<path d="M199.51 345.63C203.41 346.21 207.44 345.09 211.27 344.48C211.353 344.458 211.43 344.417 211.495 344.361C211.559 344.304 211.61 344.233 211.642 344.153C211.674 344.073 211.687 343.987 211.68 343.902C211.672 343.816 211.645 343.733 211.6 343.66C211.615 343.649 211.627 343.634 211.635 343.618C211.643 343.601 211.647 343.583 211.647 343.565C211.647 343.547 211.643 343.529 211.635 343.512C211.627 343.496 211.615 343.481 211.6 343.47C208.523 340.732 204.782 338.846 200.75 338C198.39 337.56 195.05 338.2 194.75 341.13C194.39 343.89 197.23 345.28 199.51 345.63ZM196.79 343.08C193.79 339.25 199.52 338.92 201.24 339.32C202.356 339.596 203.452 339.947 204.52 340.37C206.74 341.22 208.81 342.37 210.93 343.43C209.03 343.61 207.16 343.96 205.27 344.21C203 344.51 198.47 345.2 196.79 343.08Z" fill="#263238"/>
<path d="M97.7002 133.47C97.7002 133.47 149.57 221.71 151 227.9C153.13 237.42 164.44 331.44 164.44 331.44L218.44 330.44C218.44 330.44 209.14 247.55 200.33 220.24C193.99 200.57 148.21 135.33 148.21 135.33L97.7002 133.47Z" fill="#37474F"/>
<path d="M213.47 322.19C205.72 322.14 178.25 321.83 167.93 322.79C167.85 322.79 167.86 322.93 167.93 322.94C171.48 323.45 205.71 322.65 213.46 322.41C213.475 322.411 213.489 322.408 213.503 322.404C213.516 322.399 213.529 322.391 213.54 322.381C213.55 322.372 213.559 322.36 213.565 322.347C213.571 322.334 213.575 322.319 213.575 322.305C213.576 322.291 213.574 322.276 213.569 322.263C213.564 322.249 213.556 322.236 213.547 322.226C213.537 322.215 213.525 322.206 213.512 322.2C213.499 322.194 213.485 322.191 213.47 322.19Z" fill="#263238"/>
<path d="M106.55 141.57C109.95 146.9 113.55 152.12 117.01 157.4C120.47 162.68 124 168 127.37 173.31C134.21 183.977 140.877 194.713 147.37 205.52C150.537 210.508 153.245 215.773 155.46 221.25C157.485 226.747 159.004 232.417 160 238.19C161.06 243.98 161.76 249.83 162.41 255.67C163.077 261.897 163.774 268.123 164.5 274.35C165.92 287.09 167.344 299.83 168.77 312.57C168.94 314.13 169.11 315.69 169.27 317.26C169.27 317.48 168.88 317.53 168.85 317.26C167.26 304.6 165.94 291.91 164.5 279.26C163.78 272.947 163.064 266.637 162.35 260.33C161.68 254.46 161.04 248.59 160.13 242.75C159.295 236.996 158.025 231.313 156.33 225.75C154.466 219.986 151.964 214.449 148.87 209.24C142.62 198.45 136 187.85 129.38 177.24C122.76 166.63 116 156 109 145.51C108.14 144.22 107.27 142.93 106.37 141.66C106.31 141.56 106.49 141.46 106.55 141.57Z" fill="#263238"/>
<path d="M114.7 369.56C112.24 369.41 48.7002 343.66 46.9302 341.23C46.8626 341.083 46.8318 340.922 46.8402 340.76C46.8402 338.57 51.2502 330.92 54.9302 320.89C55.1602 320.25 56.8002 317.27 59.0702 313.25C65.3302 302.25 76.4002 283.33 76.4002 283.33L117.93 299.83L98.0502 329.59L95.0002 336.79C95.0002 336.79 114.49 356.93 116.13 359.79C117.77 362.65 117.15 369.7 114.7 369.56Z" fill="#EB9481"/>
<path d="M114.7 369.56C112.24 369.41 48.7002 343.66 46.9302 341.23C46.8626 341.083 46.8318 340.922 46.8402 340.76C46.8402 338.57 51.2502 330.92 54.9302 320.89C55.1602 320.25 56.8002 317.27 59.0702 313.25L98.0702 329.59L95.0002 336.79C95.0002 336.79 114.49 356.93 116.13 359.79C117.77 362.65 117.15 369.7 114.7 369.56Z" fill="white"/>
<path d="M114.7 369.55C112.24 369.41 48.7003 343.66 46.9403 341.22C46.2603 340.3 49.1003 331.62 54.9403 320.89L94.9403 336.79C94.9403 336.79 114.43 356.93 116.08 359.79C117.73 362.65 117.15 369.7 114.7 369.55Z" fill="#A6A6A6"/>
<path d="M114.8 366.72C104.51 362.3 62.5701 345.44 52.06 341.85C51.97 341.85 51.95 341.85 52.06 341.92C62.17 346.52 104.24 363.04 114.76 366.92C115 367 115 366.81 114.8 366.72Z" fill="#263238"/>
<path d="M113 356C111.859 355.499 110.626 355.24 109.38 355.24C108.134 355.24 106.901 355.499 105.76 356C103.713 356.904 102.089 358.557 101.22 360.62C101.22 360.69 101.31 360.73 101.34 360.67C102.526 358.749 104.306 357.265 106.409 356.445C108.513 355.624 110.826 355.51 113 356.12C113 356.14 113.08 356 113 356Z" fill="#263238"/>
<path d="M98.5705 339.44C94.4405 337.72 89.0205 337.26 85.0705 339.62C84.9205 339.71 85.0705 339.93 85.2005 339.92C89.6033 339.463 94.0427 339.486 98.4405 339.99C98.506 339.99 98.5698 339.968 98.6213 339.928C98.6729 339.887 98.7092 339.831 98.7242 339.767C98.7393 339.703 98.7323 339.636 98.7044 339.577C98.6765 339.517 98.6293 339.469 98.5705 339.44Z" fill="#263238"/>
<path d="M101.28 342C97.1504 340.28 91.7304 339.81 87.7804 342.18C87.6304 342.27 87.7804 342.49 87.9104 342.48C92.3131 342.025 96.752 342.045 101.15 342.54C101.218 342.547 101.286 342.53 101.342 342.491C101.397 342.451 101.437 342.393 101.453 342.327C101.469 342.261 101.46 342.191 101.428 342.131C101.397 342.071 101.344 342.024 101.28 342Z" fill="#263238"/>
<path d="M104 344.52C99.8604 342.8 94.4404 342.33 90.4904 344.7C90.3404 344.79 90.4904 345.01 90.6204 345C95.0231 344.545 99.462 344.565 103.86 345.06C103.929 345.072 104 345.057 104.059 345.019C104.118 344.981 104.16 344.922 104.178 344.854C104.195 344.786 104.187 344.714 104.154 344.653C104.121 344.591 104.066 344.543 104 344.52Z" fill="#263238"/>
<path d="M106.71 347.06C102.57 345.34 97.1604 344.87 93.2104 347.24C93.0504 347.33 93.2104 347.55 93.3304 347.53C97.7337 347.083 102.172 347.107 106.57 347.6C106.639 347.612 106.71 347.597 106.769 347.559C106.828 347.521 106.87 347.462 106.888 347.394C106.905 347.326 106.897 347.254 106.864 347.193C106.831 347.131 106.776 347.083 106.71 347.06Z" fill="#263238"/>
<path d="M58.6603 333C53.9903 331.14 51.0903 338.4 55.7803 340.26C60.4703 342.12 63.3403 334.9 58.6603 333Z" fill="#263238"/>
<path d="M107.52 330.14C106.11 327.55 102.78 328.19 100.75 329.49C97.331 331.777 94.5724 334.922 92.7503 338.61C92.7423 338.627 92.738 338.645 92.7378 338.664C92.7376 338.683 92.7414 338.701 92.749 338.718C92.7566 338.735 92.7678 338.751 92.7818 338.763C92.7958 338.775 92.8124 338.785 92.8303 338.79C92.8303 339.12 93.0503 339.51 93.4403 339.42C97.2303 338.56 101.38 338.11 104.78 336.11C106.73 334.94 108.85 332.59 107.52 330.14ZM98.8703 336.94C97.0203 337.41 95.1603 337.79 93.3303 338.32C94.844 336.5 96.4494 334.757 98.1403 333.1C98.9714 332.31 99.8532 331.575 100.78 330.9C102.24 329.9 107.72 328.04 106.32 332.74C105.55 335.33 101.08 336.38 98.8703 336.94Z" fill="#263238"/>
<path d="M81.7504 336C85.1504 338 89.3004 338.47 93.0804 339.34C93.4704 339.43 93.7304 339.04 93.7004 338.71C93.718 338.706 93.7344 338.698 93.7484 338.686C93.7625 338.675 93.7737 338.661 93.7814 338.644C93.7891 338.628 93.793 338.61 93.7928 338.592C93.7927 338.574 93.7884 338.556 93.7804 338.54C91.9642 334.84 89.2049 331.684 85.7804 329.39C83.7804 328.09 80.4304 327.39 79.0104 330.02C77.5904 332.65 79.7604 334.84 81.7504 336ZM80.1904 332.62C78.8004 327.92 84.2704 329.78 85.7204 330.8C86.6514 331.47 87.5336 332.205 88.3604 333C90.1104 334.63 91.5904 336.47 93.1604 338.25C91.3304 337.7 89.4704 337.32 87.6204 336.85C85.4204 336.3 81.0004 335.23 80.1904 332.64V332.62Z" fill="#263238"/>
<path d="M101.26 327.92L54.77 309.15C54.77 309.15 112.41 224.41 112.83 218.15C113.21 212.56 87.89 163.94 86.9 149.77C85.82 134.48 93.18 122.64 101.28 115.3L149.23 135.68C149.23 135.68 144.17 143.78 136.23 148.29C136.23 148.29 160.82 204.49 159.42 221.77C158.02 239.05 101.26 327.92 101.26 327.92Z" fill="#37474F"/>
<path d="M103.32 319.08C96.6004 316.19 98.5704 316.93 91.8104 314.08C88.5104 312.7 66.8104 303.67 63.4704 302.93C63.4004 302.93 63.3504 303.03 63.4704 303.07C66.3604 304.84 88.2404 313.49 91.5704 314.8C98.3804 317.49 96.4504 316.64 103.29 319.25C103.305 319.242 103.318 319.231 103.327 319.218C103.337 319.204 103.344 319.189 103.347 319.172C103.349 319.156 103.349 319.139 103.344 319.123C103.34 319.107 103.331 319.092 103.32 319.08Z" fill="#263238"/>
<path d="M144.09 147.21C139.098 148.37 134.214 149.953 129.49 151.94C129.456 151.957 129.43 151.987 129.415 152.022C129.401 152.057 129.399 152.097 129.412 152.133C129.424 152.169 129.448 152.2 129.481 152.219C129.514 152.239 129.552 152.246 129.59 152.24C134.49 150.8 139.47 149.47 144.29 147.78C144.328 147.767 144.362 147.746 144.392 147.72C144.421 147.694 144.445 147.662 144.462 147.626C144.479 147.59 144.489 147.551 144.492 147.512C144.494 147.472 144.488 147.432 144.475 147.395C144.462 147.358 144.442 147.323 144.415 147.294C144.389 147.264 144.357 147.24 144.321 147.223C144.285 147.206 144.246 147.196 144.207 147.193C144.167 147.191 144.128 147.197 144.09 147.21Z" fill="#263238"/>
<path d="M138.4 145.24C137.936 146.066 137.525 146.921 137.17 147.8C136.826 148.474 136.612 149.207 136.54 149.96C136.54 150.1 136.74 150.14 136.82 150.05C137.324 149.45 137.732 148.775 138.03 148.05C138.44 147.26 138.86 146.47 139.25 145.67C139.5 145.11 138.69 144.73 138.4 145.24Z" fill="#263238"/>
<path d="M139 140.73C139.3 139.99 139.59 139.25 139.9 138.52C140.21 137.79 140.6 137.02 140.9 136.24C140.9 136.12 141.14 136.24 141.09 136.32C140.79 137.06 140.6 137.85 140.37 138.61C140.14 139.37 139.88 140.13 139.63 140.89C139.16 142.3 138.63 143.7 137.98 145.06C138.768 145.104 139.554 144.967 140.28 144.66C141.017 144.199 141.587 143.516 141.91 142.71C142.33 141.89 142.72 141.04 143.15 140.22C143.682 139.338 144.127 138.407 144.48 137.44C144.48 137.32 144.72 137.44 144.67 137.52C144.02 139.574 143.166 141.557 142.12 143.44C141.67 144.17 141.32 144.93 140.5 145.22C139.613 145.47 138.683 145.531 137.77 145.4C137.65 145.4 137.51 145.4 137.55 145.23C137.959 143.707 138.443 142.205 139 140.73Z" fill="#263238"/>
<path d="M136.94 150.07C138.65 153.68 140.15 157.28 141.74 160.88C143.33 164.48 144.74 167.96 146.17 171.53C149.03 178.76 151.59 186.12 153.84 193.53C154.95 197.21 155.98 200.92 156.9 204.65C157.913 208.382 158.655 212.182 159.12 216.02C159.522 219.849 159.182 223.719 158.12 227.42C157.019 231.075 155.604 234.629 153.89 238.04C152.84 240.21 152.49 239.91 152.99 238.82C154.42 235.73 158.17 226.34 157.9 218.44C157.672 214.641 157.076 210.874 156.12 207.19C155.247 203.41 154.264 199.66 153.17 195.94C151.04 188.6 148.51 181.41 145.91 174.23C144.45 170.23 142.91 166.23 141.41 162.23C139.91 158.23 138.41 154.54 136.73 150.13C136.726 150.116 136.725 150.102 136.727 150.088C136.728 150.073 136.733 150.06 136.74 150.047C136.747 150.034 136.756 150.023 136.767 150.014C136.779 150.006 136.791 149.999 136.805 149.995C136.819 149.991 136.833 149.99 136.848 149.992C136.862 149.993 136.876 149.998 136.888 150.005C136.901 150.012 136.912 150.021 136.921 150.032C136.93 150.043 136.936 150.056 136.94 150.07Z" fill="#263238"/>
<path d="M101.65 138.13C102.48 137.82 103.65 138.34 104.49 138.48C105.579 138.66 106.678 138.77 107.78 138.81C108.871 138.843 109.964 138.807 111.05 138.7C112.144 138.668 113.215 138.384 114.18 137.87C115.765 136.717 117.121 135.279 118.18 133.63C119.448 131.952 120.493 130.117 121.29 128.17C121.29 128.06 121.5 128.17 121.46 128.25C121.11 129.37 120.85 130.49 120.46 131.58C120.027 132.603 119.512 133.59 118.92 134.53C117.955 136.418 116.531 138.034 114.78 139.23C112.85 140.33 110.37 140.23 108.22 140.14C106.973 140.064 105.733 139.897 104.51 139.64C103.63 139.46 102.15 139.32 101.59 138.54C101.564 138.511 101.544 138.476 101.533 138.438C101.522 138.4 101.519 138.36 101.524 138.321C101.53 138.282 101.544 138.245 101.566 138.212C101.588 138.179 101.617 138.151 101.65 138.13Z" fill="#263238"/>
<path d="M68.0004 300.29C75.6404 288.73 83.1404 277.063 90.5004 265.29C97.8604 253.517 105.12 241.667 112.28 229.74C113.99 226.89 115.96 224.04 117.06 220.88C118.26 217.45 117.58 214.13 116.5 210.77C114.461 204.64 112.077 198.631 109.36 192.77C106.68 186.86 103.79 181.05 100.95 175.21C98.1104 169.37 95.1804 163.63 93.0004 157.55C91.0004 151.74 90.1904 145.72 91.7504 139.69C93.3104 133.66 96.6704 128.35 100.18 123.34C101.1 122.02 102.05 120.71 102.98 119.4C103.05 119.29 103.2 119.4 103.13 119.52C99.2604 124.74 95.4904 130.26 93.2204 136.39C92.0602 139.415 91.4113 142.612 91.3004 145.85C91.2806 149.13 91.7905 152.392 92.8104 155.51C94.6904 161.59 97.6604 167.35 100.43 173.06C103.2 178.77 106.16 184.71 108.89 190.59C111.676 196.498 114.152 202.546 116.31 208.71C117.24 211.47 118.31 214.34 118.23 217.29C118.16 220.52 116.62 223.43 115.02 226.15C108.02 238.01 100.85 249.72 93.5504 261.36C86.2504 273 78.7404 284.64 71.1404 296.15L68.3004 300.5C68.1804 300.68 67.9204 300.47 68.0004 300.29Z" fill="#263238"/>
<path d="M151.89 81.73C156.22 91.24 178.09 104.33 188.33 105.73C195.69 106.73 218.07 107.09 225.74 105.92C234.74 104.55 227.86 80.29 222.55 80.92C207.95 82.63 195.55 84.53 191.65 84.53C186.89 84.53 161.14 76.26 158.04 75.1C150.44 72.25 149.44 76.35 151.89 81.73Z" fill="#EB9481"/>
<path d="M152 84.25C157.48 92.36 175.69 105.61 175.69 105.61L178.22 100.01L186.59 81.5C186.59 81.5 169.86 76.22 158.85 73.87C157.554 73.5751 156.237 73.3878 154.91 73.31C147.91 72.93 147.3 77.27 152 84.25Z" fill="#0D6EFD"/>
<path d="M152 84.25C157.48 92.36 175.69 105.61 175.69 105.61L178.22 100.01C171.43 92.13 160.94 80.18 154.91 73.31C147.91 72.93 147.3 77.27 152 84.25Z" fill="#263238"/>
<path d="M172.44 101.87C173.83 98.47 180.01 84.74 181.55 81.87C181.65 81.67 181.81 81.68 181.72 81.87C179.039 88.6979 175.988 95.3745 172.58 101.87C172.54 102 172.4 102 172.44 101.87Z" fill="#263238"/>
<path d="M219.87 81.18C228.75 80 239.74 78 249.05 82C250.097 82.4127 250.975 83.1667 251.54 84.14C255.74 85.84 256.2 88.33 256.2 88.33C259.63 91.11 259.75 93.72 259.75 93.72C259.75 93.72 264.67 95.72 263.92 98.95C263.1 102.51 256.36 98.95 251.46 99.24C240.21 99.93 224.46 104.06 221.21 104.59L219.87 81.18Z" fill="#EB9481"/>
<path d="M239.16 91.66C242.45 91.435 245.751 91.435 249.04 91.66C252.622 92.1095 256.166 92.8281 259.64 93.81C259.663 93.818 259.687 93.8166 259.709 93.8063C259.73 93.796 259.747 93.7776 259.755 93.755C259.763 93.7325 259.762 93.7077 259.751 93.6861C259.741 93.6646 259.723 93.648 259.7 93.64C253.173 91.0792 246.068 90.3597 239.16 91.56C239 91.54 239 91.66 239.16 91.66Z" fill="#263238"/>
<path d="M237.76 84.93C240.99 84.93 246.67 85.09 256.17 88.4C256.17 88.4 256.23 88.4 256.17 88.35C250.478 85.4703 244.096 84.2341 237.74 84.78C237.56 84.79 237.54 84.93 237.76 84.93Z" fill="#263238"/>
<path d="M237.07 81.31C242.56 81.59 245.99 82.46 251.51 84.12C251.51 84.12 251.57 84.12 251.51 84.07C245.43 81.52 242.94 81.29 237.04 81.12C236.85 81.11 236.86 81.29 237.07 81.31Z" fill="#263238"/>
<path d="M238 100.9C236.57 101.57 236.92 102.33 239.65 102.96C242.38 103.59 253.73 103.78 253.33 107.73C252.93 111.68 236.92 111.19 232.45 109.79C227.98 108.39 221.25 104.56 221.25 104.56C224.34 104 231.82 102 238 100.9Z" fill="#EB9481"/>
<path d="M163.78 96.88C163.71 98.59 163.55 100.33 163.31 102.05L163.38 101.87C163.71 100.97 164.04 100.04 164.44 99.17C164.44 99.17 164.54 99.17 164.53 99.17C164.333 100.122 164.045 101.053 163.67 101.95C163.49 102.37 163.32 102.8 163.13 103.22C163.01 103.99 162.87 104.75 162.72 105.5C162.42 106.93 161.07 113.02 160.72 114.04C160.66 114.26 160.4 114.21 160.42 113.97C160.49 112.85 161.62 106.51 161.85 105.08C162.297 102.296 162.894 99.5389 163.64 96.82C163.69 96.79 163.79 96.82 163.78 96.88Z" fill="#263238"/>
<path d="M153.36 142.34C150.69 143.72 147.25 145.85 131.75 142.8C130.75 142.6 129.81 142.36 128.83 142.07C114.3 137.7 96.8301 120.61 95.8301 119.41C95.8301 119.41 118.92 81.98 148.45 70.21C152.1 68.76 158.14 71.56 161.45 75.05C162.64 76.3 165.23 85.48 164.24 92.92C163.25 100.36 156 141 153.36 142.34Z" fill="#0D6EFD"/>
<path d="M151.3 92.58C151.413 94.165 151.192 95.756 150.65 97.25C150.525 95.6646 150.747 94.0709 151.3 92.58Z" fill="white"/>
<path d="M141.23 118.07C141.294 118.86 141.267 119.656 141.15 120.44C141.053 121.227 140.861 121.999 140.58 122.74C140.511 121.95 140.538 121.154 140.66 120.37C140.761 119.584 140.952 118.812 141.23 118.07Z" fill="white"/>
<path d="M124.12 98.81C124.232 100.392 124.01 101.979 123.47 103.47C123.398 102.683 123.421 101.891 123.54 101.11C123.645 100.324 123.839 99.5519 124.12 98.81Z" fill="white"/>
<path d="M157.89 116.78C157.954 117.57 157.927 118.366 157.81 119.15C157.713 119.933 157.521 120.702 157.24 121.44C157.171 120.653 157.198 119.861 157.32 119.08C157.421 118.294 157.613 117.522 157.89 116.78Z" fill="white"/>
<path d="M135.92 95.5C137.502 95.3885 139.09 95.6099 140.58 96.15C138.999 96.2636 137.411 96.0421 135.92 95.5Z" fill="white"/>
<path d="M116.5 113.92C118.082 113.809 119.669 114.03 121.16 114.57C119.578 114.684 117.99 114.462 116.5 113.92Z" fill="white"/>
<path d="M139.34 133.85C140.131 133.786 140.926 133.813 141.71 133.93C142.494 134.028 143.263 134.219 144 134.5C143.213 134.569 142.421 134.542 141.64 134.42C140.854 134.319 140.083 134.128 139.34 133.85Z" fill="white"/>
<path d="M110.51 126.61C111.297 126.546 112.089 126.573 112.87 126.69C113.657 126.786 114.429 126.978 115.17 127.26C113.589 127.372 112.001 127.15 110.51 126.61Z" fill="white"/>
<path d="M151.15 74.67C151.937 74.6029 152.729 74.6264 153.51 74.74C154.298 74.8398 155.07 75.0345 155.81 75.32C154.229 75.4315 152.641 75.2101 151.15 74.67Z" fill="white"/>
<path d="M145.5 81.05C144.471 82.2557 143.192 83.2216 141.75 83.88C142.264 83.2801 142.845 82.7401 143.48 82.27C144.101 81.7819 144.779 81.3722 145.5 81.05Z" fill="white"/>
<path d="M114.71 99.17C114.199 99.7756 113.618 100.319 112.98 100.79C112.365 101.275 111.693 101.684 110.98 102.01C111.492 101.404 112.073 100.861 112.71 100.39C113.33 99.9108 114.001 99.5017 114.71 99.17Z" fill="white"/>
<path d="M153.16 107.36C152.649 107.966 152.068 108.509 151.43 108.98C150.811 109.459 150.14 109.868 149.43 110.2C149.942 109.594 150.522 109.051 151.16 108.58C151.778 108.099 152.449 107.689 153.16 107.36Z" fill="white"/>
<path d="M128.26 123C127.749 123.606 127.168 124.149 126.53 124.62C125.912 125.101 125.241 125.511 124.53 125.84C125.042 125.234 125.622 124.691 126.26 124.22C126.876 123.735 127.547 123.326 128.26 123Z" fill="white"/>
<path d="M162.7 85.93C162.198 86.5338 161.627 87.0775 161 87.55C160.385 88.0361 159.714 88.4458 159 88.77C159.512 88.1644 160.092 87.6207 160.73 87.15C161.339 86.6707 162 86.2614 162.7 85.93Z" fill="white"/>
<path d="M162.17 104.11C161.57 103.596 161.03 103.015 160.56 102.38C160.072 101.767 159.662 101.095 159.34 100.38C160.544 101.415 161.509 102.697 162.17 104.14V104.11Z" fill="white"/>
<path d="M106.68 116.62C106.075 116.112 105.531 115.535 105.06 114.9C104.583 114.279 104.174 113.608 103.84 112.9C104.446 113.408 104.989 113.985 105.46 114.62C105.941 115.239 106.35 115.91 106.68 116.62Z" fill="white"/>
<path d="M155.43 131.52C154.825 131.008 154.281 130.428 153.81 129.79C153.331 129.171 152.921 128.5 152.59 127.79C153.198 128.296 153.742 128.873 154.21 129.51C154.694 130.13 155.103 130.805 155.43 131.52Z" fill="white"/>
<path d="M131 89.07C130.395 88.5584 129.851 87.9778 129.38 87.34C128.899 86.7218 128.49 86.0508 128.16 85.34C128.762 85.8297 129.305 86.3867 129.78 87C130.264 87.6416 130.673 88.3361 131 89.07Z" fill="white"/>
<path d="M131.43 140C130.825 139.488 130.281 138.908 129.81 138.27C129.329 137.652 128.92 136.981 128.59 136.27C129.196 136.782 129.74 137.362 130.21 138C130.695 138.616 131.105 139.287 131.43 140Z" fill="white"/>
<path d="M135.58 110C134.978 109.492 134.438 108.914 133.97 108.28C133.484 107.665 133.074 106.994 132.75 106.28C133.352 106.792 133.893 107.372 134.36 108.01C134.846 108.621 135.256 109.29 135.58 110Z" fill="white"/>
<path d="M156.11 85C152.34 84.3 148.8 76.52 148.35 71.28C148.35 70.92 150.11 68.06 152.12 64.49C153.34 62.32 154.63 59.88 155.66 57.56C155.87 57.08 157.1 58.67 157.1 58.67L159.78 60.67L168.63 67.46C166.524 69.9932 164.734 72.7737 163.3 75.74C163.159 76.0612 163.051 76.3964 162.98 76.74C162.977 76.7933 162.977 76.8467 162.98 76.9C162.43 78.9 159.74 85.69 156.11 85Z" fill="#EB9481"/>
<path d="M163 76.8C162.998 76.8533 162.998 76.9067 163 76.96C162.475 76.8096 161.963 76.6156 161.47 76.38C151.71 71.84 156 58.85 156 58.85L159.8 60.73L168.65 67.52C166.544 70.0532 164.754 72.8337 163.32 75.8C163.179 76.1212 163.072 76.4564 163 76.8Z" fill="#263238"/>
<path d="M178.8 39.85C178.8 39.85 183.22 42.66 183.25 47.66C183.28 52.66 181.25 57.55 180.83 57.72C180.41 57.89 178.8 39.85 178.8 39.85Z" fill="#263238"/>
<path d="M156.82 42.44C154.16 47.7 154.3 64.24 157.62 68.51C162.44 74.69 171.72 76.82 177.33 70.71C182.76 64.78 182.2 43.22 178.33 39.2C172.7 33.29 160.76 34.68 156.82 42.44Z" fill="#EB9481"/>
<path d="M170.94 55.7C170.94 55.7 170.85 55.7 170.86 55.8C170.92 56.93 170.8 58.23 169.79 58.63V58.69C171 58.48 171.18 56.76 170.94 55.7Z" fill="#263238"/>
<path d="M169.91 54.54C168.09 54.45 168.03 58.09 169.72 58.18C171.41 58.27 171.43 54.62 169.91 54.54Z" fill="#263238"/>
<path d="M177.11 55.66C177.11 55.66 177.2 55.71 177.2 55.76C177.14 56.88 177.27 58.18 178.29 58.57V58.64C177 58.44 176.88 56.72 177.11 55.66Z" fill="#263238"/>
<path d="M178.14 54.49C179.95 54.39 180.04 58.03 178.36 58.13C176.68 58.23 176.62 54.59 178.14 54.49Z" fill="#263238"/>
<path d="M168.77 51.77C169.248 51.6375 169.718 51.4806 170.18 51.3C170.705 51.205 171.184 50.9375 171.54 50.54C171.626 50.3925 171.661 50.2212 171.642 50.0517C171.622 49.8823 171.548 49.7238 171.43 49.6C171.159 49.3959 170.838 49.2679 170.5 49.2293C170.163 49.1906 169.821 49.2426 169.51 49.38C168.834 49.5528 168.249 49.9742 167.87 50.56C167.789 50.6988 167.751 50.8583 167.76 51.0186C167.769 51.179 167.825 51.3332 167.921 51.462C168.017 51.5909 168.148 51.6888 168.299 51.7435C168.45 51.7983 168.614 51.8075 168.77 51.77Z" fill="#263238"/>
<path d="M179.4 53.39C178.927 53.2832 178.46 53.1531 178 53C177.473 52.9303 176.984 52.6876 176.61 52.31C176.515 52.1688 176.469 51.9999 176.48 51.8298C176.49 51.6596 176.557 51.4979 176.67 51.37C176.929 51.1514 177.241 51.0056 177.575 50.9476C177.909 50.8896 178.253 50.9215 178.57 51.04C179.252 51.1862 179.857 51.5776 180.27 52.14C180.355 52.2777 180.398 52.4372 180.394 52.599C180.389 52.7607 180.338 52.9177 180.245 53.0505C180.153 53.1833 180.024 53.2862 179.873 53.3465C179.723 53.4069 179.559 53.422 179.4 53.39Z" fill="#263238"/>
<path d="M174.92 61.56C174.92 61.56 174.97 63.25 174.92 64.03C173.383 63.8734 171.832 63.9306 170.31 64.2C169.95 64.28 169.99 63.99 170.4 63.8C171.626 63.2398 172.991 63.0587 174.32 63.28C174.4 63.07 174.19 60.68 174.32 60.69C174.923 60.8111 175.508 61.0094 176.06 61.28C176.06 57.76 175.5 54.28 175.55 50.77C175.55 50.65 175.74 50.63 175.76 50.77C176.47 54.4938 176.805 58.2794 176.76 62.07C176.77 62.5 175.22 61.73 174.92 61.56Z" fill="#263238"/>
<path d="M172.67 63.43C172.272 64.4786 171.532 65.3626 170.57 65.94C169.06 66.56 168.57 65.19 170.09 63.94C170.886 63.5341 171.78 63.3576 172.67 63.43Z" fill="#263238"/>
<path d="M171.1 65.63C170.941 65.76 170.762 65.8646 170.57 65.94C169.18 66.5 168.63 65.39 169.75 64.27C170.51 64.33 171.34 64.61 171.1 65.63Z" fill="#FF99BA"/>
<path d="M156.06 56.6C157.89 57.16 159.99 51.66 160.58 49.55C161.11 47.68 161.71 41.77 161.8 41.37C161.89 40.97 169.8 46.6 174.38 45.25C178.96 43.9 182.07 39.77 182.14 37.84C182.21 35.91 176.48 31.01 171.53 30.76C166.58 30.51 159.87 36.76 159.87 36.76C160.681 35.8402 161.417 34.8571 162.07 33.82C161.99 33.59 158.79 34.82 158.2 37.15C158.2 37.15 158.84 34.29 158.6 34.24C158.36 34.19 155.87 36.63 156.43 38.49C156.43 38.49 153.55 40.98 153.29 43.71C153.03 46.44 153.91 55.94 156.06 56.6Z" fill="#263238"/>
<path d="M177.66 44.29C176.292 45.0216 174.822 45.5472 173.3 45.85C171.593 46.0031 169.875 45.7282 168.3 45.05C166.737 44.4275 165.285 43.5563 164 42.47C162.85 41.52 161.82 40.38 160.59 39.53C160.28 39.32 159.93 39.76 160.12 40.05C162.176 42.9428 165.107 45.0987 168.48 46.2C170.047 46.7146 171.721 46.8128 173.338 46.485C174.954 46.1571 176.458 45.4145 177.7 44.33C177.7 44.33 177.68 44.28 177.66 44.29Z" fill="#263238"/>
<path d="M158 56.11C158 56.11 155.16 50.35 152.6 51.28C150.04 52.21 151.6 60.18 154.23 61.63C154.552 61.8389 154.912 61.9807 155.29 62.047C155.667 62.1133 156.055 62.1027 156.428 62.0159C156.801 61.929 157.154 61.7678 157.463 61.5417C157.773 61.3155 158.034 61.0293 158.23 60.7L158 56.11Z" fill="#EB9481"/>
<path d="M153.08 53.55C153.08 53.55 153.02 53.6 153.08 53.62C154.9 54.71 155.64 56.67 156.08 58.62C155.999 58.4074 155.871 58.2152 155.708 58.0567C155.544 57.8981 155.348 57.7771 155.133 57.7019C154.918 57.6267 154.689 57.5993 154.463 57.6214C154.236 57.6435 154.017 57.7147 153.82 57.83C153.76 57.83 153.82 57.95 153.82 57.94C154.178 57.8859 154.544 57.9432 154.867 58.1042C155.191 58.2653 155.458 58.5222 155.63 58.84C155.918 59.3767 156.146 59.9434 156.31 60.53C156.37 60.71 156.7 60.67 156.67 60.46V60.41C157.1 58 155.7 54.21 153.08 53.55Z" fill="#263238"/>
<path d="M139.22 81.82C137.22 93.15 149.5 131.32 157.37 138.45C169.08 149.06 190.73 156.03 198.58 158.3C202 159.3 211.46 135.22 208 133.64C200.59 130.24 177.57 123.06 175.4 121.22C173.23 119.38 160 100.34 154.13 89.37C146.24 74.64 140.21 76.09 139.22 81.82Z" fill="#EB9481"/>
<path d="M202.17 131.52C202.17 131.52 212.39 134.12 218.98 136.14C222.66 137.26 228.8 139.75 231.13 141.82C234.61 144.9 247.19 160.03 243.59 163.16C240.33 165.99 231.17 151.62 231.17 151.62C231.17 151.62 241.69 165.31 237.17 167.99C232.65 170.67 224.43 153.07 224.43 153.07C224.43 153.07 234.92 167.37 229.79 169.4C225.91 170.94 217.59 155.4 217.59 155.4C217.59 155.4 226.53 167.75 222.59 169.5C218.25 171.43 209.68 157.58 209.68 157.58C198.96 160.35 192.68 157.28 188.55 154.58C187.53 153.93 202.17 131.52 202.17 131.52Z" fill="#EB9481"/>
<path d="M227.83 146.66C229.12 148.22 230.45 149.79 231.6 151.47C232.75 153.15 233.84 154.85 234.83 156.62C236.168 158.911 237.241 161.347 238.03 163.88C236.31 159.49 232.28 153.44 231.13 151.77C229.98 150.1 228.91 148.37 227.77 146.7C227.74 146.66 227.8 146.62 227.83 146.66Z" fill="#263238"/>
<path d="M221.72 150.7C223.94 152.46 228.59 159.01 230.38 163.39C230.46 163.58 230.38 163.56 230.25 163.39C228.84 161.22 223.17 152.82 221.67 150.73C221.64 150.71 221.69 150.68 221.72 150.7Z" fill="#263238"/>
<path d="M215.85 153.23C218.606 156.126 220.784 159.519 222.27 163.23C222.34 163.41 222.2 163.38 222.09 163.23C220.02 159.86 218.42 157.23 215.74 153.31C215.7 153.26 215.79 153.17 215.85 153.23Z" fill="#263238"/>
<path d="M150.35 82.66C141.22 69.74 135.76 74.53 137.59 88.55C139.31 101.66 143.9 117.27 143.9 117.27L166.9 106.11L150.35 82.66Z" fill="#0D6EFD"/>
<path d="M155.93 87.73C156.526 89.2014 156.799 90.7839 156.73 92.37C156.43 91.6405 156.215 90.8788 156.09 90.1C155.941 89.3194 155.888 88.5236 155.93 87.73Z" fill="white"/>
<path d="M142.3 95.59C143.769 94.9959 145.347 94.7198 146.93 94.78C146.203 95.0877 145.44 95.3059 144.66 95.43C143.882 95.5685 143.09 95.6221 142.3 95.59Z" fill="white"/>
<path d="M142.89 75.5C142.591 76.2335 142.205 76.9285 141.74 77.57C141.292 78.2224 140.768 78.8198 140.18 79.35C140.806 77.8924 141.729 76.5812 142.89 75.5Z" fill="white"/>
<path d="M162.33 101.62C161.711 103.081 160.787 104.394 159.62 105.47C159.919 104.736 160.305 104.042 160.77 103.4C161.219 102.748 161.742 102.15 162.33 101.62Z" fill="white"/>
<path d="M146.39 109.45C144.929 108.831 143.616 107.907 142.54 106.74C144.001 107.359 145.314 108.283 146.39 109.45Z" fill="white"/>
<path d="M153.41 86.54C154.64 88.23 155.91 89.89 157.17 91.54C156.85 90.7 156.57 89.86 156.33 88.99C156.33 88.99 156.33 88.99 156.39 88.99C156.64 89.66 156.93 90.31 157.17 90.99L157.53 91.99C157.561 92.0549 157.588 92.1217 157.61 92.19C158.61 93.48 159.61 94.78 160.53 96.1C161.66 97.68 162.75 99.28 163.85 100.88C164.95 102.48 166.06 104.47 167.25 106.07C167.36 106.21 165.25 107.07 165.01 107.19C164.77 107.31 164.67 107.1 164.89 107.04C165.11 106.98 166.79 105.93 166.81 105.91C165.71 104.3 164.44 102.81 163.29 101.23C162.14 99.65 161 98 159.89 96.44C157.64 93.2 155.58 89.84 153.34 86.59C153.32 86.54 153.38 86.5 153.41 86.54Z" fill="#263238"/>
<path d="M138.16 97.82C138.51 98.5 138.89 99.18 139.16 99.88L139.54 100.75C139.01 98.25 138.54 95.75 137.99 93.26C139.05 97.31 140.12 101.35 141.1 105.42C142.03 109.29 143.16 113.22 143.7 117.17C144.4 116.872 145.123 116.628 145.86 116.44C145.122 116.928 144.322 117.315 143.48 117.59C142.274 113.567 141.272 109.485 140.48 105.36C140.23 104.24 140 103.12 139.76 101.99C139.5 101.32 139.19 100.67 138.88 99.99C138.57 99.31 138.29 98.57 138.01 97.85C138.07 97.81 138.14 97.78 138.16 97.82Z" fill="#263238"/>
<path d="M144.27 113.42C147.47 111.61 160.84 104.69 163.83 103.42C164.04 103.33 164.15 103.42 163.94 103.55C157.595 107.24 151.052 110.579 144.34 113.55C144.26 113.58 144.18 113.47 144.27 113.42Z" fill="#263238"/>
<path d="M510.7 376.32H206.02L250.07 126.47H554.75L510.7 376.32Z" fill="#0D6EFD"/>
<path d="M354.35 100.59H254.64L250.07 126.47H356.79L354.35 100.59Z" fill="#0D6EFD"/>
<g opacity="0.1">
<path d="M510.7 376.32H206.02L250.07 126.47H554.75L510.7 376.32Z" fill="black"/>
<path d="M354.35 100.59H254.64L250.07 126.47H356.79L354.35 100.59Z" fill="black"/>
</g>
<path d="M243.88 111.15C243.214 108.285 243.214 105.305 243.88 102.44C244.547 105.305 244.547 108.285 243.88 111.15Z" fill="#263238"/>
<path d="M235 113.71C233.982 112.654 233.105 111.471 232.39 110.19C231.64 108.936 231.052 107.592 230.64 106.19C231.662 107.243 232.539 108.427 233.25 109.71C233.997 110.966 234.585 112.309 235 113.71Z" fill="#263238"/>
<path d="M228.62 120.36C227.219 119.951 225.875 119.366 224.62 118.62C223.337 117.908 222.154 117.031 221.1 116.01C223.913 116.858 226.49 118.347 228.63 120.36H228.62Z" fill="#263238"/>
<path d="M226.41 129.31C223.548 129.977 220.572 129.977 217.71 129.31C220.572 128.643 223.548 128.643 226.41 129.31Z" fill="#263238"/>
<path d="M229 138.17C227.948 139.188 226.768 140.065 225.49 140.78C224.235 141.527 222.891 142.115 221.49 142.53C222.543 141.509 223.727 140.631 225.01 139.92C226.261 139.171 227.602 138.583 229 138.17Z" fill="#263238"/>
<path d="M235.62 144.57C235.215 145.973 234.63 147.317 233.88 148.57C233.168 149.853 232.291 151.036 231.27 152.09C231.681 150.688 232.269 149.343 233.02 148.09C233.736 146.813 234.61 145.63 235.62 144.57Z" fill="#263238"/>
<path d="M244.58 146.78C244.929 148.203 245.096 149.665 245.08 151.13C245.101 152.595 244.933 154.058 244.58 155.48C244.221 154.058 244.053 152.596 244.08 151.13C244.058 149.665 244.226 148.202 244.58 146.78Z" fill="#263238"/>
<path d="M253.44 144.22C254.458 145.272 255.335 146.452 256.05 147.73C256.798 148.984 257.382 150.328 257.79 151.73C255.783 149.586 254.294 147.01 253.44 144.2V144.22Z" fill="#263238"/>
<path d="M259.83 137.57C261.233 137.974 262.578 138.559 263.83 139.31C265.111 140.024 266.294 140.902 267.35 141.92C265.946 141.513 264.602 140.925 263.35 140.17C262.071 139.456 260.889 138.582 259.83 137.57Z" fill="#263238"/>
<path d="M262 128.61C263.423 128.261 264.885 128.093 266.35 128.11C267.819 128.088 269.284 128.256 270.71 128.61C269.285 128.969 267.819 129.137 266.35 129.11C264.885 129.132 263.422 128.963 262 128.61Z" fill="#263238"/>
<path d="M259.48 119.75C260.536 118.732 261.719 117.854 263 117.14C264.252 116.389 265.597 115.804 267 115.4C264.854 117.41 262.274 118.899 259.46 119.75H259.48Z" fill="#263238"/>
<path d="M252.83 113.36C253.238 111.958 253.823 110.614 254.57 109.36C255.285 108.079 256.162 106.896 257.18 105.84C256.776 107.243 256.191 108.588 255.44 109.84C254.726 111.121 253.848 112.304 252.83 113.36Z" fill="#263238"/>
<path d="M510.25 376.32H204.91L161.56 135.54H466.9L510.25 376.32Z" fill="#0D6EFD"/>
<path d="M267.37 282.73C274.379 282.73 280.06 277.049 280.06 270.04C280.06 263.032 274.379 257.35 267.37 257.35C260.362 257.35 254.68 263.032 254.68 270.04C254.68 277.049 260.362 282.73 267.37 282.73Z" fill="#EDEDED"/>
<path d="M367.69 282.73C374.698 282.73 380.38 277.049 380.38 270.04C380.38 263.032 374.698 257.35 367.69 257.35C360.682 257.35 355 263.032 355 270.04C355 277.049 360.682 282.73 367.69 282.73Z" fill="#EDEDED"/>
<path d="M335.76 284.75L335.06 283.42C335 283.3 328.44 271.19 315.25 271.19C303.25 271.19 300.25 282.6 300.17 283.08L299.81 284.54L296.9 283.83L297.25 282.38C297.25 282.24 300.83 268.19 315.25 268.19C330.25 268.19 337.42 281.47 337.72 282.03L338.42 283.36L335.76 284.75Z" fill="#EDEDED"/>
<path d="M490 268.58C490.65 268.44 491.3 268.29 491.94 268.12" stroke="#263238" stroke-miterlimit="10"/>
<path d="M495.77 267C511.07 261.83 523.88 249.8 525.08 235.74C527.74 204.74 489.99 187.62 493.89 151.79C497.61 117.62 533.45 115.18 547.82 119.91C563.69 125.12 558.25 140.38 543.88 138.41C519 135 503.31 107.91 515.14 77.19C524 54.23 546 45.58 555 42.94" stroke="#263238" stroke-miterlimit="10" stroke-dasharray="4 4"/>
<path d="M556.9 42.41C558.13 42.09 558.84 41.95 558.84 41.95" stroke="#263238" stroke-miterlimit="10"/>
<path d="M574.7 36.43C572.15 28.53 555.07 31.37 558.4 41.69C561.73 52.01 577.25 44.33 574.7 36.43Z" fill="#263238"/>
<path d="M549.11 33.24C549.24 29.78 554.06 27.11 560.88 28.34C567.7 29.57 574.11 34.16 574.11 34.16C574.11 34.16 567.37 38.29 560.49 39.01C553.61 39.73 549 36.73 549.11 33.24Z" fill="#EBEBEB"/>
<path d="M574.11 34.16C570.57 34.16 567.04 34.07 563.51 33.96C559.98 33.85 556.44 33.67 552.91 33.38C556.45 33.38 559.99 33.48 563.52 33.59C567.05 33.7 570.59 33.88 574.11 34.16Z" fill="#263238"/>
<path d="M556 30.17C558.013 31.1299 559.908 32.3177 561.65 33.71C560.646 33.2308 559.671 32.6932 558.73 32.1C557.783 31.5104 556.872 30.866 556 30.17Z" fill="#263238"/>
<path d="M565.23 33.84C564.321 34.5585 563.373 35.2262 562.39 35.84C561.423 36.4715 560.421 37.0491 559.39 37.57C560.298 36.8492 561.246 36.1814 562.23 35.57C563.197 34.9385 564.199 34.3609 565.23 33.84Z" fill="#263238"/>
<path d="M566.26 31.88C566.761 32.1277 567.234 32.4295 567.67 32.78C568.108 33.1375 568.501 33.5472 568.84 34C568.337 33.7546 567.864 33.4527 567.43 33.1C566.991 32.7425 566.599 32.3328 566.26 31.88Z" fill="#263238"/>
<path d="M555.61 53.82C557.74 56.55 563.21 55.9 568.02 50.91C572.83 45.92 575.35 38.45 575.35 38.45C575.35 38.45 567.47 39.05 561.46 42.45C555.45 45.85 553.47 51.07 555.61 53.82Z" fill="#EBEBEB"/>
<path d="M575.35 38.45C572.47 40.45 569.67 42.66 566.86 44.82C564.05 46.98 561.3 49.18 558.61 51.48C561.49 49.48 564.29 47.27 567.09 45.11C569.89 42.95 572.65 40.74 575.35 38.45Z" fill="#263238"/>
<path d="M563 52.3C563.534 51.3285 564.012 50.3268 564.43 49.3C564.855 48.2736 565.216 47.2215 565.51 46.15C564.975 47.1214 564.498 48.1231 564.08 49.15C563.655 50.1765 563.294 51.2286 563 52.3Z" fill="#263238"/>
<path d="M568.33 43.91C567.164 43.845 565.996 43.845 564.83 43.91C563.664 43.964 562.502 44.0875 561.35 44.28C562.516 44.345 563.684 44.345 564.85 44.28C566.017 44.227 567.179 44.1035 568.33 43.91Z" fill="#263238"/>
<path d="M570.31 44.89C570.575 44.3984 570.783 43.8784 570.93 43.34C571.077 42.8013 571.165 42.2479 571.19 41.69C570.921 42.1796 570.713 42.7001 570.57 43.24C570.418 43.7776 570.331 44.3316 570.31 44.89Z" fill="#263238"/>
<path d="M574.7 36.43C574.135 36.6134 573.529 36.6251 572.957 36.4635C572.386 36.302 571.875 35.9745 571.49 35.5226C571.105 35.0707 570.863 34.5146 570.794 33.9249C570.725 33.3351 570.832 32.7381 571.103 32.2096C571.374 31.681 571.795 31.2447 572.314 30.9557C572.832 30.6668 573.425 30.5383 574.017 30.5866C574.609 30.6348 575.173 30.8576 575.638 31.2267C576.103 31.5958 576.449 32.0946 576.63 32.66C576.873 33.4159 576.806 34.2371 576.444 34.9437C576.082 35.6504 575.455 36.1848 574.7 36.43Z" fill="#455A64"/>
<path d="M576.54 42.13C575.975 42.3134 575.369 42.3251 574.797 42.1635C574.226 42.002 573.715 41.6745 573.33 41.2226C572.945 40.7707 572.702 40.2146 572.634 39.6249C572.565 39.0351 572.672 38.4381 572.943 37.9096C573.213 37.381 573.635 36.9447 574.154 36.6557C574.672 36.3668 575.265 36.2383 575.857 36.2866C576.449 36.3348 577.013 36.5576 577.478 36.9267C577.943 37.2958 578.288 37.7946 578.47 38.36C578.712 39.1159 578.645 39.9371 578.284 40.6437C577.922 41.3504 577.295 41.8848 576.54 42.13Z" fill="#455A64"/>
<path d="M248.69 39.59C248.212 44.1842 246.467 48.5552 243.649 52.2148C240.831 55.8743 237.05 58.6782 232.73 60.3132C228.411 61.9482 223.721 62.3499 219.186 61.4734C214.651 60.597 210.449 58.4769 207.05 55.35L194.58 57.18L200.82 46.4C199.385 42.8898 198.771 39.0987 199.023 35.3151C199.274 31.5316 200.386 27.8554 202.273 24.5662C204.16 21.277 206.772 18.4616 209.911 16.3341C213.049 14.2067 216.632 12.8233 220.386 12.2892C224.14 11.7551 227.967 12.0845 231.575 13.2522C235.182 14.4199 238.476 16.3951 241.205 19.0276C243.934 21.6602 246.027 24.8806 247.324 28.4438C248.621 32.007 249.088 35.8191 248.69 39.59Z" fill="white"/>
<path d="M248.69 39.59C248.221 44.1808 246.49 48.5522 243.69 52.22C242.994 53.1348 242.239 54.0033 241.43 54.82C240.602 55.6192 239.724 56.3641 238.8 57.05C236.964 58.4384 234.945 59.5658 232.8 60.4C230.647 61.2374 228.389 61.7758 226.09 62C224.939 62.0999 223.783 62.1199 222.63 62.06C221.472 62.0353 220.318 61.9149 219.18 61.7C214.585 60.8578 210.315 58.7524 206.85 55.62L207.14 55.71L194.69 57.62L193.78 57.76L194.24 56.96L200.44 46.16V46.59C198.985 43.05 198.357 39.2249 198.603 35.4056C198.849 31.5863 199.963 27.8734 201.86 24.5493C203.756 21.2252 206.386 18.3774 209.549 16.2225C212.712 14.0676 216.325 12.6624 220.112 12.1136C223.9 11.5649 227.763 11.8872 231.407 13.0559C235.052 14.2247 238.382 16.2091 241.144 18.8583C243.906 21.5075 246.027 24.7517 247.347 28.3442C248.667 31.9366 249.15 35.7827 248.76 39.59H248.69ZM248.69 39.59C249.094 35.8345 248.63 32.0363 247.333 28.4888C246.036 24.9412 243.941 21.7392 241.21 19.1299C238.479 16.5206 235.184 14.5738 231.581 13.4399C227.978 12.3059 224.163 12.0151 220.43 12.59C216.734 13.1449 213.215 14.537 210.14 16.66C207.091 18.7943 204.545 21.569 202.68 24.79C200.838 28.0187 199.754 31.6236 199.51 35.3327C199.265 39.0417 199.867 42.7577 201.27 46.2L201.36 46.42L201.24 46.62L195 57.4L194.56 56.74L207 55H207.17L207.29 55.12C210.624 58.2361 214.757 60.3652 219.23 61.27C220.344 61.492 221.474 61.6291 222.61 61.68C223.745 61.76 224.885 61.76 226.02 61.68C228.297 61.5051 230.538 61.0137 232.68 60.22C234.827 59.4382 236.848 58.3467 238.68 56.98C239.599 56.2989 240.477 55.5643 241.31 54.78C242.121 53.97 242.88 53.1082 243.58 52.2C246.416 48.5499 248.185 44.1849 248.69 39.59Z" fill="#263238"/>
<path d="M211.72 48.61C211.701 48.2789 211.75 47.9474 211.864 47.6361C211.978 47.3248 212.155 47.0403 212.384 46.8002C212.613 46.5602 212.889 46.3697 213.194 46.2407C213.5 46.1116 213.828 46.0467 214.16 46.05C214.492 46.0421 214.823 46.1039 215.13 46.2315C215.437 46.3591 215.714 46.5496 215.943 46.7908C216.172 47.032 216.348 47.3185 216.459 47.6319C216.571 47.9452 216.615 48.2784 216.59 48.61C216.613 48.9417 216.568 49.2747 216.456 49.5879C216.344 49.901 216.168 50.1875 215.94 50.4292C215.711 50.6708 215.435 50.8623 215.129 50.9916C214.822 51.1208 214.492 51.185 214.16 51.18C213.828 51.1819 213.499 51.1157 213.193 50.9856C212.888 50.8554 212.612 50.664 212.384 50.4232C212.155 50.1823 211.978 49.8972 211.864 49.5853C211.75 49.2735 211.701 48.9415 211.72 48.61ZM212.72 42.7L212.14 22.86H216.14L215.56 42.7H212.72Z" fill="#0D6EFD"/>
<path d="M221.22 48.61C221.202 48.2793 221.252 47.9484 221.367 47.6378C221.482 47.3271 221.659 47.0432 221.887 46.8034C222.116 46.5637 222.391 46.3732 222.696 46.2436C223.001 46.114 223.329 46.0482 223.66 46.05C223.993 46.0406 224.325 46.1014 224.633 46.2284C224.941 46.3553 225.22 46.5457 225.45 46.787C225.68 47.0284 225.856 47.3154 225.968 47.6294C226.08 47.9435 226.125 48.2775 226.1 48.61C226.124 48.9426 226.078 49.2764 225.965 49.5903C225.853 49.9041 225.676 50.1911 225.446 50.4329C225.217 50.6747 224.939 50.866 224.632 50.9946C224.324 51.1233 223.993 51.1864 223.66 51.18C223.328 51.1819 222.999 51.1157 222.693 50.9856C222.388 50.8554 222.112 50.664 221.884 50.4232C221.655 50.1823 221.478 49.8972 221.364 49.5853C221.25 49.2735 221.201 48.9415 221.22 48.61ZM222.22 42.7L221.64 22.86H225.64L225.06 42.7H222.22Z" fill="#0D6EFD"/>
<path d="M230.73 48.61C230.712 48.2793 230.762 47.9484 230.877 47.6378C230.991 47.3271 231.169 47.0432 231.397 46.8034C231.626 46.5637 231.901 46.3732 232.205 46.2436C232.51 46.114 232.838 46.0482 233.17 46.05C233.503 46.0406 233.834 46.1014 234.143 46.2284C234.451 46.3553 234.729 46.5457 234.959 46.787C235.189 47.0284 235.366 47.3154 235.478 47.6294C235.59 47.9435 235.635 48.2775 235.61 48.61C235.61 49.2571 235.352 49.8778 234.895 50.3353C234.437 50.7929 233.817 51.05 233.17 51.05C232.522 51.05 231.902 50.7929 231.444 50.3353C230.987 49.8778 230.73 49.2571 230.73 48.61ZM231.73 42.7L231.15 22.86H235.15L234.58 42.7H231.73Z" fill="#0D6EFD"/>
</g>
<defs>
<clipPath id="clip0_2306_41746">
<rect width="611.94" height="400.98" fill="white"/>
</clipPath>
</defs>
</svg>
