<svg width="24" height="24" viewBox="0 0 24 24" fill="none" xmlns="http://www.w3.org/2000/svg">
<path fill-rule="evenodd" clip-rule="evenodd" d="M20.339 7.65948C21.009 8.17848 21.42 8.94948 21.49 9.78848L21.5 9.98948V18.0985C21.5 20.1885 19.849 21.8885 17.78 21.9985H15.79C14.839 21.9795 14.07 21.2395 14 20.3095L13.99 20.1685V17.3095C13.99 16.9985 13.759 16.7395 13.45 16.6885L13.36 16.6785H10.689C10.37 16.6885 10.11 16.9185 10.07 17.2185L10.06 17.3095V20.1595C10.06 20.2185 10.049 20.2885 10.04 20.3385L10.03 20.3595L10.019 20.4285C9.9 21.2795 9.2 21.9285 8.33 21.9895L8.2 21.9985H6.41C4.32 21.9985 2.61 20.3595 2.5 18.2985V9.98948C2.509 9.13848 2.88 8.34848 3.5 7.79848L9.73 2.78848C11 1.77948 12.78 1.73948 14.089 2.66848L14.25 2.78848L20.339 7.65948ZM20.099 18.2585L20.11 18.0985V9.99848C20.099 9.56948 19.92 9.16848 19.61 8.86948L19.48 8.75848L13.38 3.87848C12.62 3.26848 11.54 3.23948 10.74 3.76848L10.589 3.87848L4.509 8.77948C4.16 9.03848 3.95 9.42848 3.9 9.83848L3.889 9.99848V18.0985C3.889 19.4285 4.929 20.5185 6.25 20.5985H8.2C8.42 20.5985 8.61 20.4495 8.639 20.2395L8.66 20.0595L8.67 20.0085V17.3095C8.67 16.2395 9.49 15.3695 10.54 15.2885H13.36C14.429 15.2885 15.299 16.1095 15.38 17.1595V20.1685C15.38 20.3785 15.53 20.5595 15.73 20.5985H17.589C18.929 20.5985 20.019 19.5695 20.099 18.2585Z" fill="#0D6EFD"/>
</svg>
