<svg width="48" height="48" viewBox="0 0 48 48" fill="none" xmlns="http://www.w3.org/2000/svg">
<path d="M24 45.5C12.14 45.5 2.5 35.86 2.5 24C2.5 12.14 12.14 2.5 24 2.5C35.86 2.5 45.5 12.14 45.5 24C45.5 35.86 35.86 45.5 24 45.5ZM24 5.5C13.8 5.5 5.5 13.8 5.5 24C5.5 34.2 13.8 42.5 24 42.5C34.2 42.5 42.5 34.2 42.5 24C42.5 13.8 34.2 5.5 24 5.5Z" fill="#292D32"/>
<path d="M24 27.5C23.18 27.5 22.5 26.82 22.5 26V16C22.5 15.18 23.18 14.5 24 14.5C24.82 14.5 25.5 15.18 25.5 16V26C25.5 26.82 24.82 27.5 24 27.5Z" fill="#292D32"/>
<path d="M24 33.9998C23.74 33.9998 23.48 33.9398 23.24 33.8398C23 33.7398 22.78 33.5998 22.58 33.4198C22.4 33.2198 22.26 33.0198 22.16 32.7598C22.06 32.5198 22 32.2598 22 31.9998C22 31.7398 22.06 31.4798 22.16 31.2398C22.26 30.9998 22.4 30.7798 22.58 30.5798C22.78 30.3998 23 30.2598 23.24 30.1598C23.72 29.9598 24.28 29.9598 24.76 30.1598C25 30.2598 25.22 30.3998 25.42 30.5798C25.6 30.7798 25.74 30.9998 25.84 31.2398C25.94 31.4798 26 31.7398 26 31.9998C26 32.2598 25.94 32.5198 25.84 32.7598C25.74 33.0198 25.6 33.2198 25.42 33.4198C25.22 33.5998 25 33.7398 24.76 33.8398C24.52 33.9398 24.26 33.9998 24 33.9998Z" fill="#292D32"/>
</svg>
