<svg width="0" height="0" class="hidden">
	<symbol xmlns="http://www.w3.org/2000/svg" viewBox="0 0 24 24" id="directbox-receive">
		<path d="M12 8.75C11.9 8.75 11.81 8.73 11.71 8.69C11.43 8.58 11.25 8.3 11.25 8V2C11.25 1.59 11.59 1.25 12 1.25C12.41 1.25 12.75 1.59 12.75 2V6.19L13.47 5.47C13.76 5.18 14.24 5.18 14.53 5.47C14.82 5.76 14.82 6.24 14.53 6.53L12.53 8.53C12.39 8.67 12.19 8.75 12 8.75Z" ></path>
		<path d="M12 8.74994C11.81 8.74994 11.62 8.67994 11.47 8.52994L9.47 6.52994C9.18 6.23994 9.18 5.75994 9.47 5.46994C9.76 5.17994 10.24 5.17994 10.53 5.46994L12.53 7.46994C12.82 7.75994 12.82 8.23994 12.53 8.52994C12.38 8.67994 12.19 8.74994 12 8.74994Z" ></path>
		<path d="M16 22.75H8C2.25 22.75 2.25 19.7 2.25 17V16C2.25 13.77 2.25 11.25 7 11.25C8.19 11.25 8.63 11.54 9.25 12C9.28 12.03 9.32 12.05 9.35 12.09L10.37 13.17C11.23 14.08 12.79 14.08 13.65 13.17L14.67 12.09C14.7 12.06 14.73 12.03 14.77 12C15.39 11.53 15.83 11.25 17.02 11.25C21.77 11.25 21.77 13.77 21.77 16V17C21.75 20.82 19.82 22.75 16 22.75ZM7 12.75C3.75 12.75 3.75 13.77 3.75 16V17C3.75 19.74 3.75 21.25 8 21.25H16C18.98 21.25 20.25 19.98 20.25 17V16C20.25 13.77 20.25 12.75 17 12.75C16.28 12.75 16.13 12.84 15.7 13.16L14.73 14.19C14.01 14.95 13.04 15.37 12 15.37C10.96 15.37 9.99 14.95 9.27 14.19L8.3 13.16C7.87 12.84 7.72 12.75 7 12.75Z" ></path>
		<path d="M5 12.75C4.59 12.75 4.25 12.41 4.25 12V7.99996C4.25 6.05996 4.25 3.64996 7.93 3.29996C8.34 3.25996 8.71 3.55996 8.75 3.97996C8.79 4.38996 8.49 4.75996 8.07 4.79996C5.75 5.00996 5.75 5.94996 5.75 7.99996V12C5.75 12.41 5.41 12.75 5 12.75Z" ></path>
		<path d="M19 12.75C18.59 12.75 18.25 12.41 18.25 12V7.99998C18.25 5.94998 18.25 5.00998 15.93 4.78998C15.52 4.74998 15.22 4.37998 15.26 3.96998C15.3 3.55998 15.66 3.24998 16.08 3.29998C19.76 3.64998 19.76 6.05998 19.76 7.99998V12C19.75 12.41 19.41 12.75 19 12.75Z" ></path>
	</symbol>
	<symbol xmlns="http://www.w3.org/2000/svg" viewBox="0 0 24 24" id="export">
		<path d="M13 11.75C12.81 11.75 12.62 11.68 12.47 11.53C12.18 11.24 12.18 10.76 12.47 10.47L20.67 2.26999C20.96 1.97999 21.44 1.97999 21.73 2.26999C22.02 2.55999 22.02 3.03999 21.73 3.32999L13.53 11.53C13.38 11.68 13.19 11.75 13 11.75Z" ></path>
		<path d="M22 7.55C21.59 7.55 21.25 7.21 21.25 6.8V2.75H17.2C16.79 2.75 16.45 2.41 16.45 2C16.45 1.59 16.79 1.25 17.2 1.25H22C22.41 1.25 22.75 1.59 22.75 2V6.8C22.75 7.21 22.41 7.55 22 7.55Z" ></path>
		<path d="M15 22.75H9C3.57 22.75 1.25 20.43 1.25 15V9C1.25 3.57 3.57 1.25 9 1.25H11C11.41 1.25 11.75 1.59 11.75 2C11.75 2.41 11.41 2.75 11 2.75H9C4.39 2.75 2.75 4.39 2.75 9V15C2.75 19.61 4.39 21.25 9 21.25H15C19.61 21.25 21.25 19.61 21.25 15V13C21.25 12.59 21.59 12.25 22 12.25C22.41 12.25 22.75 12.59 22.75 13V15C22.75 20.43 20.43 22.75 15 22.75Z" ></path>
	</symbol>
	<symbol xmlns="http://www.w3.org/2000/svg" viewBox="0 0 24 24" id="import">
		<path d="M13.8002 10.9504C13.6102 10.9504 13.4202 10.8804 13.2702 10.7304C12.9802 10.4404 12.9802 9.96043 13.2702 9.67043L21.4702 1.47043C21.7602 1.18043 22.2402 1.18043 22.5302 1.47043C22.8202 1.76043 22.8202 2.24043 22.5302 2.53043L14.3302 10.7304C14.1902 10.8704 14.0002 10.9504 13.8002 10.9504Z" ></path>
		<path d="M17.83 11.7499H13C12.59 11.7499 12.25 11.4099 12.25 10.9999V6.16992C12.25 5.75992 12.59 5.41992 13 5.41992C13.41 5.41992 13.75 5.75992 13.75 6.16992V10.2499H17.83C18.24 10.2499 18.58 10.5899 18.58 10.9999C18.58 11.4099 18.24 11.7499 17.83 11.7499Z" ></path>
		<path d="M15 22.75H9C3.57 22.75 1.25 20.43 1.25 15V9C1.25 3.57 3.57 1.25 9 1.25H11C11.41 1.25 11.75 1.59 11.75 2C11.75 2.41 11.41 2.75 11 2.75H9C4.39 2.75 2.75 4.39 2.75 9V15C2.75 19.61 4.39 21.25 9 21.25H15C19.61 21.25 21.25 19.61 21.25 15V13C21.25 12.59 21.59 12.25 22 12.25C22.41 12.25 22.75 12.59 22.75 13V15C22.75 20.43 20.43 22.75 15 22.75Z" ></path>
	</symbol>
	<symbol xmlns="http://www.w3.org/2000/svg" viewBox="0 0 24 24" id="personalcard">
		<path d="M17 21.75H7C2.59 21.75 1.25 20.41 1.25 16V8C1.25 3.59 2.59 2.25 7 2.25H17C21.41 2.25 22.75 3.59 22.75 8V16C22.75 20.41 21.41 21.75 17 21.75ZM7 3.75C3.42 3.75 2.75 4.43 2.75 8V16C2.75 19.57 3.42 20.25 7 20.25H17C20.58 20.25 21.25 19.57 21.25 16V8C21.25 4.43 20.58 3.75 17 3.75H7Z" ></path>
		<path d="M19 8.75H14C13.59 8.75 13.25 8.41 13.25 8C13.25 7.59 13.59 7.25 14 7.25H19C19.41 7.25 19.75 7.59 19.75 8C19.75 8.41 19.41 8.75 19 8.75Z" ></path>
		<path d="M19 12.75H15C14.59 12.75 14.25 12.41 14.25 12C14.25 11.59 14.59 11.25 15 11.25H19C19.41 11.25 19.75 11.59 19.75 12C19.75 12.41 19.41 12.75 19 12.75Z" ></path>
		<path d="M19 16.75H17C16.59 16.75 16.25 16.41 16.25 16C16.25 15.59 16.59 15.25 17 15.25H19C19.41 15.25 19.75 15.59 19.75 16C19.75 16.41 19.41 16.75 19 16.75Z" ></path>
		<path d="M8.49945 12.0399C7.08945 12.0399 5.93945 10.8899 5.93945 9.47992C5.93945 8.06992 7.08945 6.91992 8.49945 6.91992C9.90945 6.91992 11.0595 8.06992 11.0595 9.47992C11.0595 10.8899 9.90945 12.0399 8.49945 12.0399ZM8.49945 8.41992C7.91945 8.41992 7.43945 8.89992 7.43945 9.47992C7.43945 10.0599 7.91945 10.5399 8.49945 10.5399C9.07945 10.5399 9.55945 10.0599 9.55945 9.47992C9.55945 8.89992 9.07945 8.41992 8.49945 8.41992Z" ></path>
		<path d="M11.9999 17.0798C11.6199 17.0798 11.2899 16.7898 11.2499 16.3998C11.1399 15.3198 10.2699 14.4498 9.17991 14.3498C8.71991 14.3098 8.25991 14.3098 7.79991 14.3498C6.70991 14.4498 5.83991 15.3098 5.72991 16.3998C5.68991 16.8098 5.31991 17.1198 4.90991 17.0698C4.49991 17.0298 4.19991 16.6598 4.23991 16.2498C4.41991 14.4498 5.84991 13.0198 7.65991 12.8598C8.20991 12.8098 8.76991 12.8098 9.31991 12.8598C11.1199 13.0298 12.5599 14.4598 12.7399 16.2498C12.7799 16.6598 12.4799 17.0298 12.0699 17.0698C12.0499 17.0798 12.0199 17.0798 11.9999 17.0798Z" ></path>
	</symbol>
	<symbol xmlns="http://www.w3.org/2000/svg" viewBox="0 0 24 24" id="profile-delete">
		<path d="M15.5893 21.6603C15.3993 21.6603 15.2093 21.5903 15.0593 21.4403C14.7693 21.1503 14.7693 20.6703 15.0593 20.3803L17.8793 17.5603C18.1693 17.2703 18.6493 17.2703 18.9393 17.5603C19.2293 17.8503 19.2293 18.3303 18.9393 18.6203L16.1193 21.4403C15.9693 21.5903 15.7793 21.6603 15.5893 21.6603Z" ></path>
		<path d="M18.4093 21.6603C18.2193 21.6603 18.0293 21.5903 17.8793 21.4403L15.0593 18.6203C14.7693 18.3303 14.7693 17.8503 15.0593 17.5603C15.3493 17.2703 15.8293 17.2703 16.1193 17.5603L18.9393 20.3803C19.2293 20.6703 19.2293 21.1503 18.9393 21.4403C18.7893 21.5903 18.5993 21.6603 18.4093 21.6603Z" ></path>
		<path d="M12.1605 11.62C12.1305 11.62 12.1105 11.62 12.0805 11.62C12.0305 11.61 11.9605 11.61 11.9005 11.62C9.00055 11.53 6.81055 9.25 6.81055 6.44C6.81055 3.58 9.14055 1.25 12.0005 1.25C14.8605 1.25 17.1905 3.58 17.1905 6.44C17.1805 9.25 14.9805 11.53 12.1905 11.62C12.1805 11.62 12.1705 11.62 12.1605 11.62ZM12.0005 2.75C9.97055 2.75 8.31055 4.41 8.31055 6.44C8.31055 8.44 9.87055 10.05 11.8605 10.12C11.9205 10.11 12.0505 10.11 12.1805 10.12C14.1405 10.03 15.6805 8.42 15.6905 6.44C15.6905 4.41 14.0305 2.75 12.0005 2.75Z" ></path>
		<path d="M11.9999 22.5597C9.95992 22.5597 8.02992 22.0297 6.56992 21.0497C5.17992 20.1197 4.41992 18.8497 4.41992 17.4797C4.41992 16.1097 5.18992 14.8497 6.56992 13.9297C9.55992 11.9297 14.4199 11.9297 17.4099 13.9297C17.7499 14.1597 17.8499 14.6297 17.6199 14.9697C17.3899 15.3197 16.9199 15.4097 16.5799 15.1797C14.0899 13.5197 9.88992 13.5197 7.39992 15.1797C6.43992 15.8197 5.91992 16.6297 5.91992 17.4797C5.91992 18.3297 6.44992 19.1597 7.39992 19.7997C8.60992 20.6097 10.2399 21.0497 11.9899 21.0497C12.3999 21.0497 12.7399 21.3897 12.7399 21.7997C12.7399 22.2097 12.4099 22.5597 11.9999 22.5597Z" ></path>
	</symbol>
	<symbol xmlns="http://www.w3.org/2000/svg" viewBox="0 0 24 24" id="profile-tick">
		<path d="M15.9609 21.3197C15.7709 21.3197 15.5809 21.2497 15.4309 21.0997L13.9109 19.5797C13.6209 19.2897 13.6209 18.8097 13.9109 18.5197C14.2009 18.2297 14.6809 18.2297 14.9709 18.5197L15.9609 19.5097L18.4709 16.9997C18.7609 16.7097 19.2409 16.7097 19.5309 16.9997C19.8209 17.2897 19.8209 17.7697 19.5309 18.0597L16.4909 21.0997C16.3409 21.2497 16.1509 21.3197 15.9609 21.3197Z" ></path>
		<path d="M12.1607 11.62C12.1307 11.62 12.1107 11.62 12.0807 11.62C12.0307 11.61 11.9607 11.61 11.9007 11.62C9.00068 11.53 6.81068 9.25 6.81068 6.44C6.80068 5.06 7.34068 3.76 8.32068 2.78C9.30068 1.8 10.6007 1.25 11.9907 1.25C14.8507 1.25 17.1807 3.58 17.1807 6.44C17.1807 9.25 14.9907 11.52 12.1907 11.62C12.1807 11.62 12.1707 11.62 12.1607 11.62ZM11.9907 2.75C11.0007 2.75 10.0807 3.14 9.38068 3.83C8.69068 4.53 8.31068 5.45 8.31068 6.43C8.31068 8.43 9.87068 10.05 11.8607 10.11C11.9207 10.1 12.0507 10.1 12.1807 10.11C14.1507 10.02 15.6807 8.41 15.6807 6.43C15.6807 4.41 14.0207 2.75 11.9907 2.75Z" ></path>
		<path d="M11.9902 22.5597C9.95016 22.5597 8.02016 22.0297 6.56016 21.0497C5.17016 20.1197 4.41016 18.8497 4.41016 17.4797C4.41016 16.1097 5.18016 14.8497 6.56016 13.9297C9.55016 11.9297 14.4102 11.9297 17.4002 13.9297C17.7402 14.1597 17.8402 14.6297 17.6102 14.9697C17.3802 15.3197 16.9102 15.4097 16.5702 15.1797C14.0802 13.5197 9.88016 13.5197 7.39016 15.1797C6.43016 15.8197 5.91016 16.6297 5.91016 17.4797C5.91016 18.3297 6.43016 19.1597 7.39016 19.7997C8.60016 20.6097 10.2302 21.0497 11.9802 21.0497C12.3902 21.0497 12.7302 21.3897 12.7302 21.7997C12.7302 22.2097 12.4002 22.5597 11.9902 22.5597Z" ></path>
	</symbol>
	<symbol xmlns="http://www.w3.org/2000/svg" viewBox="0 0 24 24" id="security-user">
		<path d="M11.9999 22.76C10.9099 22.76 9.82992 22.4399 8.97992 21.8099L4.6799 18.5999C3.5399 17.7499 2.6499 15.9799 2.6499 14.5599V7.12995C2.6499 5.58995 3.77992 3.94995 5.22992 3.40995L10.2199 1.53995C11.2099 1.16995 12.7699 1.16995 13.7599 1.53995L18.7599 3.40995C20.2099 3.94995 21.3399 5.58995 21.3399 7.12995V14.5599C21.3399 15.9799 20.4499 17.7499 19.3099 18.5999L15.0099 21.8099C14.1699 22.4399 13.0899 22.76 11.9999 22.76ZM10.7499 2.93995L5.75992 4.80994C4.89992 5.12994 4.1499 6.20995 4.1499 7.12995V14.5599C4.1499 15.5099 4.81992 16.8399 5.56992 17.3999L9.8699 20.6099C11.0199 21.4699 12.9699 21.4699 14.1199 20.6099L18.4199 17.3999C19.1799 16.8299 19.8399 15.4999 19.8399 14.5599V7.12995C19.8399 6.21995 19.0899 5.13994 18.2299 4.80994L13.2399 2.93995C12.5799 2.68995 11.4199 2.68995 10.7499 2.93995Z"></path>
		<path d="M11.9999 11.6702C11.9799 11.6702 11.9599 11.6702 11.9299 11.6702C10.4799 11.6302 9.41992 10.5202 9.41992 9.17017C9.41992 7.79017 10.5499 6.66016 11.9299 6.66016C13.3099 6.66016 14.4399 7.79017 14.4399 9.17017C14.4299 10.5302 13.3699 11.6301 12.0199 11.6801C12.0099 11.6701 12.0099 11.6702 11.9999 11.6702ZM11.9299 8.16016C11.3699 8.16016 10.9199 8.61017 10.9199 9.17017C10.9199 9.72017 11.3499 10.1601 11.8899 10.1801C11.8899 10.1801 11.9399 10.1801 11.9999 10.1801C12.5299 10.1501 12.9399 9.71017 12.9399 9.17017C12.9499 8.61017 12.4899 8.16016 11.9299 8.16016Z"></path>
		<path d="M11.9998 17.35C11.1398 17.35 10.2698 17.12 9.59982 16.67C8.92982 16.23 8.5498 15.58 8.5498 14.89C8.5498 14.2 8.92982 13.55 9.59982 13.1C10.9498 12.2 13.0598 12.21 14.3998 13.1C15.0698 13.54 15.4498 14.19 15.4498 14.88C15.4498 15.57 15.0698 16.22 14.3998 16.67C13.7298 17.12 12.8598 17.35 11.9998 17.35ZM10.4298 14.34C10.1798 14.5 10.0398 14.7 10.0498 14.88C10.0498 15.06 10.1898 15.26 10.4298 15.42C11.2698 15.98 12.7298 15.98 13.5698 15.42C13.8198 15.26 13.9598 15.06 13.9598 14.88C13.9598 14.7 13.8198 14.5 13.5798 14.34C12.7398 13.79 11.2698 13.79 10.4298 14.34Z"></path>
	</symbol>
	<symbol xmlns="http://www.w3.org/2000/svg" viewBox="0 0 24 24" id="command">
		<path d="M16 16.75H8C7.59 16.75 7.25 16.41 7.25 16V8C7.25 7.59 7.59 7.25 8 7.25H16C16.41 7.25 16.75 7.59 16.75 8V16C16.75 16.41 16.41 16.75 16 16.75ZM8.75 15.25H15.25V8.75H8.75V15.25Z"></path>
		<path d="M5 22.75C2.93 22.75 1.25 21.07 1.25 19C1.25 16.93 2.93 15.25 5 15.25H8C8.41 15.25 8.75 15.59 8.75 16V19C8.75 21.07 7.07 22.75 5 22.75ZM5 16.75C3.76 16.75 2.75 17.76 2.75 19C2.75 20.24 3.76 21.25 5 21.25C6.24 21.25 7.25 20.24 7.25 19V16.75H5Z"></path>
		<path d="M8 8.75H5C2.93 8.75 1.25 7.07 1.25 5C1.25 2.93 2.93 1.25 5 1.25C7.07 1.25 8.75 2.93 8.75 5V8C8.75 8.41 8.41 8.75 8 8.75ZM5 2.75C3.76 2.75 2.75 3.76 2.75 5C2.75 6.24 3.76 7.25 5 7.25H7.25V5C7.25 3.76 6.24 2.75 5 2.75Z"></path>
		<path d="M19 8.75H16C15.59 8.75 15.25 8.41 15.25 8V5C15.25 2.93 16.93 1.25 19 1.25C21.07 1.25 22.75 2.93 22.75 5C22.75 7.07 21.07 8.75 19 8.75ZM16.75 7.25H19C20.24 7.25 21.25 6.24 21.25 5C21.25 3.76 20.24 2.75 19 2.75C17.76 2.75 16.75 3.76 16.75 5V7.25Z"></path>
		<path d="M19 22.75C16.93 22.75 15.25 21.07 15.25 19V16C15.25 15.59 15.59 15.25 16 15.25H19C21.07 15.25 22.75 16.93 22.75 19C22.75 21.07 21.07 22.75 19 22.75ZM16.75 16.75V19C16.75 20.24 17.76 21.25 19 21.25C20.24 21.25 21.25 20.24 21.25 19C21.25 17.76 20.24 16.75 19 16.75H16.75Z"></path>
	</symbol>
</svg>