<svg width="24" height="24" viewBox="0 0 24 24" fill="none" xmlns="http://www.w3.org/2000/svg">
<path d="M17 21.75H7C2.59 21.75 1.25 20.41 1.25 16V8C1.25 3.59 2.59 2.25 7 2.25H17C21.41 2.25 22.75 3.59 22.75 8V16C22.75 20.41 21.41 21.75 17 21.75ZM7 3.75C3.42 3.75 2.75 4.43 2.75 8V16C2.75 19.57 3.42 20.25 7 20.25H17C20.58 20.25 21.25 19.57 21.25 16V8C21.25 4.43 20.58 3.75 17 3.75H7Z" fill="#292D32"/>
<path d="M19 8.75H14C13.59 8.75 13.25 8.41 13.25 8C13.25 7.59 13.59 7.25 14 7.25H19C19.41 7.25 19.75 7.59 19.75 8C19.75 8.41 19.41 8.75 19 8.75Z" fill="#002A69"/>
<path d="M19 12.75H15C14.59 12.75 14.25 12.41 14.25 12C14.25 11.59 14.59 11.25 15 11.25H19C19.41 11.25 19.75 11.59 19.75 12C19.75 12.41 19.41 12.75 19 12.75Z" fill="#002A69"/>
<path d="M19 16.75H17C16.59 16.75 16.25 16.41 16.25 16C16.25 15.59 16.59 15.25 17 15.25H19C19.41 15.25 19.75 15.59 19.75 16C19.75 16.41 19.41 16.75 19 16.75Z" fill="#002A69"/>
<path d="M8.49994 12.0399C7.08994 12.0399 5.93994 10.8899 5.93994 9.47992C5.93994 8.06992 7.08994 6.91992 8.49994 6.91992C9.90994 6.91992 11.0599 8.06992 11.0599 9.47992C11.0599 10.8899 9.90994 12.0399 8.49994 12.0399ZM8.49994 8.41992C7.91994 8.41992 7.43994 8.89992 7.43994 9.47992C7.43994 10.0599 7.91994 10.5399 8.49994 10.5399C9.07994 10.5399 9.55994 10.0599 9.55994 9.47992C9.55994 8.89992 9.07994 8.41992 8.49994 8.41992Z" fill="#002A69"/>
<path d="M12 17.08C11.62 17.08 11.29 16.79 11.25 16.4C11.14 15.32 10.27 14.45 9.18003 14.35C8.72003 14.31 8.26003 14.31 7.80003 14.35C6.71003 14.45 5.84003 15.31 5.73003 16.4C5.69003 16.81 5.32003 17.12 4.91003 17.07C4.50003 17.03 4.20003 16.66 4.24003 16.25C4.42003 14.45 5.85003 13.02 7.66003 12.86C8.21003 12.81 8.77003 12.81 9.32003 12.86C11.12 13.03 12.56 14.46 12.74 16.25C12.78 16.66 12.48 17.03 12.07 17.07C12.05 17.08 12.02 17.08 12 17.08Z" fill="#002A69"/>
</svg>
