<svg width="22" height="24" viewBox="0 0 22 24" fill="none" xmlns="http://www.w3.org/2000/svg">
<path fill-rule="evenodd" clip-rule="evenodd" d="M15.0813 2H7.34445C4.33997 2 2.33789 4.4199 2.33789 7.89317V16.1068C2.33789 19.5833 4.33469 22 7.34445 22H15.0813C18.0911 22 20.0879 19.5833 20.0879 16.1068V7.89317C20.0879 4.41665 18.0911 2 15.0813 2ZM7.34445 3.39535H15.0813C17.3866 3.39535 18.8495 5.16587 18.8495 7.89317V16.1068C18.8495 18.8341 17.3866 20.6047 15.0813 20.6047H7.34445C5.03919 20.6047 3.57626 18.8341 3.57626 16.1068V7.89317C3.57626 5.16949 5.04408 3.39535 7.34445 3.39535ZM11.2129 7.88587C11.5264 7.88587 11.7854 8.14834 11.8264 8.48887L11.8321 8.58354V11.2935H14.24C14.582 11.2935 14.8592 11.6058 14.8592 11.9911C14.8592 12.3444 14.6263 12.6363 14.324 12.6825L14.24 12.6888H11.8321V15.3988C11.8321 15.7841 11.5549 16.0964 11.2129 16.0964C10.8994 16.0964 10.6404 15.834 10.5994 15.4934L10.5937 15.3988V12.6888H8.18576C7.84379 12.6888 7.56657 12.3765 7.56657 11.9911C7.56657 11.6379 7.79951 11.346 8.10174 11.2998L8.18576 11.2935H10.5937V8.58354C10.5937 8.19823 10.8709 7.88587 11.2129 7.88587Z" fill="#707070"/>
</svg>
