<svg width="24" height="29" viewBox="0 0 24 29" fill="none" xmlns="http://www.w3.org/2000/svg">
<path d="M12 16C12.6461 16 13.2922 16.2826 13.7814 16.8375L19.7993 23.6627C20.0669 23.9663 20.0669 24.4687 19.7993 24.7723C19.5316 25.0759 19.0885 25.0759 18.8209 24.7723L12.803 17.9471C12.36 17.4446 11.64 17.4446 11.197 17.9471L5.17912 24.7723C4.91145 25.0759 4.46842 25.0759 4.20075 24.7723C3.93308 24.4687 3.93308 23.9663 4.20075 23.6627L10.2186 16.8375C10.7078 16.2826 11.3539 16 12 16Z" fill="#0D6EFD"/>
<path d="M12 5C12.6461 5 13.2922 5.28264 13.7814 5.83745L19.7993 12.6627C20.0669 12.9663 20.0669 13.4687 19.7993 13.7723C19.5316 14.0759 19.0885 14.0759 18.8209 13.7723L12.803 6.94708C12.36 6.4446 11.64 6.4446 11.197 6.94708L5.17912 13.7723C4.91145 14.0759 4.46842 14.0759 4.20075 13.7723C3.93308 13.4687 3.93308 12.9663 4.20075 12.6627L10.2186 5.83745C10.7078 5.28264 11.3539 5 12 5Z" fill="#0D6EFD"/>
</svg>
